<?xml version="1.0" standalone="no"?>
<!DOCTYPE svg PUBLIC "-//W3C//DTD SVG 20010904//EN"
 "http://www.w3.org/TR/2001/REC-SVG-20010904/DTD/svg10.dtd">
<svg version="1.0" xmlns="http://www.w3.org/2000/svg"
 width="1312.000000pt" height="600.000000pt" viewBox="0 0 1312.000000 600.000000"
 preserveAspectRatio="xMidYMid meet">

<g transform="translate(0.000000,600.000000) scale(0.100000,-0.100000)"
fill="#000000" stroke="none">
<path d="M4859 5982 c-15 -9 -53 -41 -85 -70 -93 -84 -107 -97 -139 -119 -49
-34 -209 -195 -224 -225 -13 -25 -12 -32 5 -64 24 -45 30 -49 50 -30 8 9 22
16 29 16 8 0 29 14 47 30 38 35 41 35 59 14 12 -14 14 -14 25 1 8 11 20 15 30
11 9 -4 24 0 33 7 25 22 64 27 91 12 21 -11 29 -11 51 1 15 7 29 18 31 23 1 6
24 12 51 14 27 2 56 12 68 23 21 18 21 18 38 -3 15 -18 19 -19 27 -6 6 9 25
15 49 15 22 0 45 4 52 10 22 18 58 5 61 -22 2 -18 0 -21 -6 -12 -15 22 -45 10
-55 -23 -6 -16 -15 -33 -21 -38 -6 -4 -49 -7 -96 -6 -80 2 -107 -1 -155 -20
-101 -40 -224 -56 -247 -33 -16 16 -38 15 -38 -1 0 -17 21 -44 40 -49 8 -2
-12 -5 -44 -6 -32 -1 -76 -9 -97 -19 -32 -15 -39 -23 -39 -47 0 -23 13 -42 58
-86 55 -52 183 -130 215 -130 27 0 127 -64 127 -82 0 -13 -48 -9 -57 5 -9 16
-45 36 -123 70 -44 20 -72 25 -133 24 -43 0 -80 -4 -83 -9 -9 -14 -73 -9 -105
8 -17 8 -57 18 -90 22 -59 7 -59 7 -44 30 19 26 56 29 109 7 52 -22 45 -3 -9
23 -25 12 -64 42 -87 67 -38 41 -45 44 -77 39 -20 -3 -55 -7 -78 -7 -63 -3
-61 -14 4 -28 70 -15 123 -36 123 -48 0 -14 -59 -48 -105 -60 -49 -14 -72 -27
-118 -67 -40 -36 -57 -64 -57 -92 0 -11 -6 -25 -14 -32 -8 -6 -25 -41 -37 -77
-18 -54 -21 -81 -16 -147 4 -74 32 -184 57 -228 6 -10 10 -24 10 -31 0 -7 18
-36 40 -66 22 -29 40 -50 40 -46 0 4 7 2 15 -5 8 -7 12 -17 9 -22 -3 -5 2 -18
11 -28 10 -11 19 -43 22 -82 3 -35 9 -65 13 -68 4 -3 17 -24 28 -48 30 -62 8
-64 -73 -8 -36 25 -70 46 -74 46 -5 0 -15 10 -23 22 l-14 21 -62 -29 c-34 -16
-62 -33 -62 -38 0 -4 34 -41 75 -81 74 -71 95 -108 56 -98 -13 3 -23 -2 -31
-17 -10 -18 -17 -21 -45 -16 -19 4 -36 2 -40 -4 -3 -5 -15 -10 -26 -10 -14 0
-19 -7 -19 -29 0 -35 -24 -47 -55 -27 -36 24 -48 7 -35 -50 6 -27 15 -56 19
-64 7 -13 8 -39 3 -90 -1 -8 -12 -20 -24 -25 -32 -14 -35 -43 -6 -54 13 -6 17
-10 11 -10 -16 -1 -17 -28 -2 -33 18 -6 -2 -38 -26 -38 -12 0 -34 -10 -48 -23
-29 -24 -34 -37 -16 -37 7 0 20 -10 31 -22 19 -22 19 -23 1 -29 -10 -3 -28
-10 -41 -14 -26 -9 -55 -57 -46 -78 3 -8 1 -18 -5 -22 -8 -4 -8 -12 0 -26 6
-11 13 -48 15 -82 3 -34 10 -67 16 -74 6 -8 8 -16 5 -20 -4 -3 -2 -12 5 -20 9
-12 7 -14 -13 -12 -52 5 -60 1 -47 -21 7 -11 23 -20 36 -20 15 0 26 -8 32 -24
5 -13 14 -27 20 -31 5 -3 8 -11 4 -16 -7 -12 15 -41 26 -34 4 3 11 -2 14 -11
4 -12 1 -14 -14 -9 -29 9 -25 -14 10 -52 32 -35 50 -42 50 -19 0 8 15 17 36
21 42 7 59 -1 20 -11 -31 -7 -35 -34 -5 -34 12 0 19 -5 16 -12 -2 -7 -14 -13
-26 -12 -19 1 -22 -3 -18 -30 3 -17 8 -39 12 -48 8 -21 29 -13 21 8 -3 8 4 30
15 49 18 30 24 33 40 24 27 -14 35 -39 18 -50 -11 -7 -9 -10 8 -15 11 -3 23
-14 26 -25 7 -25 33 -24 40 1 5 21 47 29 47 9 0 -6 6 -9 14 -6 20 8 58 -57 43
-72 -18 -18 -27 -13 -27 14 0 24 -10 32 -23 18 -4 -3 -2 -12 4 -19 12 -15 -24
-39 -47 -30 -20 8 -18 1 9 -27 47 -50 135 -63 129 -19 -4 26 3 28 24 7 8 -8
20 -12 27 -10 7 2 24 6 40 9 15 4 27 13 27 20 0 9 7 12 19 9 16 -4 18 -9 11
-28 -8 -20 -6 -24 11 -27 l21 -3 -21 -24 c-26 -30 -26 -31 4 -31 17 0 25 5 25
18 0 38 44 57 55 23 7 -22 38 -37 43 -22 2 6 10 11 17 11 7 0 15 4 17 9 2 4
13 11 25 15 25 8 25 8 23 -77 0 -36 1 -37 27 -31 16 4 36 11 45 15 17 9 48 2
48 -10 0 -4 -4 -11 -9 -16 -4 -6 -11 -27 -14 -48 -5 -32 -3 -38 9 -33 9 3 20
6 25 6 5 0 9 14 9 30 0 17 5 30 10 30 6 0 10 7 10 15 0 10 10 14 34 13 24 -1
33 -5 29 -15 -4 -9 2 -12 17 -11 13 2 25 -2 27 -9 5 -13 -33 -28 -60 -24 -12
2 -21 -5 -24 -18 -3 -12 -9 -21 -13 -21 -5 0 -15 -7 -23 -15 -12 -12 -13 -21
-5 -47 6 -18 13 -40 16 -48 3 -11 7 -9 15 8 9 20 8 26 -6 34 -10 5 -15 14 -11
19 3 6 12 3 19 -8 13 -17 15 -17 30 -2 20 20 26 50 12 67 -7 8 -5 12 6 12 9 0
19 -9 22 -20 4 -12 15 -20 28 -20 20 -1 21 -1 4 -11 -17 -10 -18 -12 -1 -30
20 -22 34 -16 34 13 0 18 5 20 44 16 39 -5 43 -3 39 13 -3 11 0 19 6 19 6 0 8
-7 4 -17 -5 -13 -3 -15 12 -9 18 7 18 6 0 -14 -10 -11 -16 -20 -14 -21 28 -6
49 -4 50 5 0 6 18 26 40 44 l38 34 -16 -34 c-9 -18 -23 -38 -31 -44 -21 -16 2
-28 27 -14 29 15 33 12 14 -10 -10 -11 -23 -20 -31 -20 -8 0 -5 -8 8 -22 l21
-23 26 29 c19 22 27 26 33 16 4 -7 3 -24 -3 -37 -8 -17 -7 -27 1 -35 7 -7 12
-22 12 -35 0 -19 -4 -22 -23 -18 -16 4 -29 0 -41 -14 -19 -21 -19 -21 8 -21
15 0 36 5 48 11 11 6 23 7 26 3 4 -4 1 -9 -5 -11 -10 -4 -10 -9 -1 -26 6 -12
11 -37 11 -54 0 -22 4 -33 13 -33 8 0 14 -7 14 -15 0 -8 9 -15 20 -15 18 0 25
-11 21 -34 -1 -5 16 -6 39 -3 22 3 40 4 40 2 0 -1 -14 -20 -31 -41 -22 -28
-39 -39 -57 -39 -20 0 -27 -5 -27 -20 0 -15 -8 -21 -29 -23 -18 -2 -30 -11
-33 -23 -3 -12 -11 -18 -19 -15 -7 3 -18 -3 -24 -12 -8 -14 -11 -15 -19 -3 -8
12 -12 12 -25 2 -22 -18 -20 -31 4 -31 11 0 20 -5 20 -11 0 -8 5 -8 15 1 12
10 18 10 30 0 8 -7 15 -18 14 -24 -3 -28 3 -36 31 -36 23 0 30 4 30 20 0 13
-7 20 -19 20 -29 0 -45 25 -31 49 11 22 35 28 45 11 3 -5 21 -10 40 -10 19 0
37 -5 40 -10 4 -7 14 -5 28 5 32 22 66 19 77 -7 l9 -23 7 24 7 24 17 -23 c17
-22 35 -25 101 -18 14 2 33 10 42 20 14 14 14 18 2 28 -7 6 -11 18 -8 26 7 19
42 18 49 -1 9 -23 44 -39 56 -27 7 7 3 15 -11 24 -32 20 -25 28 22 28 82 -1
102 5 103 31 0 13 4 32 8 42 11 24 2 31 -22 18 -33 -18 -47 -14 -28 7 32 36
138 6 108 -31 -18 -21 -3 -54 26 -60 20 -4 31 -1 41 14 16 23 49 25 57 4 4 -8
14 -15 23 -15 25 0 33 -11 20 -27 -9 -10 -3 -16 27 -29 21 -9 50 -29 65 -45
15 -16 33 -29 41 -29 8 0 15 -7 15 -15 0 -8 -4 -15 -9 -15 -4 0 -8 5 -8 10 0
16 -30 11 -37 -6 -7 -19 17 -37 32 -24 6 5 17 5 25 -1 13 -8 11 -12 -7 -26
-28 -19 -29 -33 -3 -33 11 0 20 7 20 15 0 8 4 15 10 15 5 0 7 7 4 15 -5 12 2
15 33 13 22 0 46 3 53 7 10 6 12 4 7 -7 -5 -13 -1 -15 21 -9 15 4 41 4 57 -1
19 -5 40 -4 58 4 35 14 57 -4 72 -60 9 -33 15 -37 50 -43 31 -5 50 -18 87 -58
29 -31 45 -57 42 -66 -4 -10 1 -15 15 -15 12 0 24 -7 27 -15 4 -8 10 -13 15
-10 4 3 13 -9 18 -27 6 -21 10 -26 10 -13 1 18 4 17 26 -9 14 -16 25 -24 25
-18 0 7 8 9 18 5 26 -9 52 -34 46 -44 -3 -5 4 -9 15 -9 12 0 21 5 21 10 0 6 7
10 15 10 18 0 59 -39 50 -48 -12 -12 70 -29 154 -31 46 -1 93 -7 103 -12 10
-5 18 -7 18 -4 0 3 8 1 18 -4 10 -6 24 -6 34 0 12 7 22 1 42 -26 44 -58 56
-60 143 -25 121 48 133 54 133 66 0 7 6 14 14 17 17 7 31 -22 17 -36 -7 -7 -3
-24 10 -49 11 -22 18 -45 16 -51 -4 -14 39 -103 54 -113 6 -3 31 -1 55 6 33
10 55 25 85 61 22 27 38 53 34 59 -3 5 0 19 8 30 13 18 16 19 27 5 16 -19 34
-19 54 1 9 8 16 13 16 9 0 -3 12 1 28 9 15 7 72 21 126 30 55 8 104 20 110 26
5 5 18 10 28 10 31 0 59 94 32 104 -8 3 -14 19 -14 36 l0 31 78 -7 c85 -7 97
-12 107 -52 4 -15 13 -35 22 -44 11 -13 13 -27 8 -54 -8 -45 3 -54 66 -54 l46
0 7 46 c3 25 2 53 -3 62 -10 19 11 70 26 64 4 -2 7 15 6 37 -1 23 2 53 7 66
12 31 -4 34 -20 5 -6 -12 -23 -25 -37 -31 -28 -11 -74 -2 -54 11 7 4 13 34 14
71 2 63 17 83 27 38 6 -23 6 -22 28 5 12 16 22 32 22 35 0 3 27 35 60 71 41
44 64 79 71 107 18 68 32 72 79 24 22 -22 40 -46 40 -52 0 -19 -41 -82 -81
-123 -29 -30 -39 -49 -44 -89 -5 -35 -4 -52 4 -55 16 -5 13 -32 -4 -32 -24 0
-19 -53 6 -68 12 -7 23 -11 27 -8 3 3 7 54 10 112 4 83 8 107 20 112 9 3 18 0
20 -6 8 -25 21 -10 16 18 -7 32 3 38 37 20 10 -6 19 -21 19 -34 0 -12 11 -33
25 -46 14 -13 25 -30 25 -37 0 -8 4 -11 10 -8 12 8 0 66 -17 84 -8 8 -21 24
-30 37 -8 13 -21 24 -29 24 -21 0 -26 19 -12 50 12 28 38 42 38 21 0 -6 27
-20 59 -31 49 -18 64 -30 90 -70 17 -26 31 -60 31 -74 0 -14 5 -26 10 -26 6 0
10 7 10 15 0 16 12 20 23 8 4 -3 2 -12 -4 -19 -14 -17 22 -57 48 -52 17 3 16
5 -4 23 -12 10 -20 22 -17 27 3 4 -9 23 -25 40 -17 18 -26 34 -21 36 20 7 9
22 -16 22 -14 0 -23 4 -20 8 6 10 -51 66 -75 75 -18 6 -31 58 -30 120 0 22 -3
35 -9 32 -6 -3 -10 -16 -10 -28 0 -28 -9 -41 -37 -56 -28 -14 -30 -1 -7 34 8
13 15 42 16 65 0 33 5 44 19 47 11 3 19 14 19 25 0 17 3 18 15 8 16 -13 18 -9
15 28 -1 16 4 22 17 20 49 -4 63 3 85 43 13 23 28 51 35 63 15 25 69 39 94 23
10 -6 20 -21 24 -34 6 -24 25 -32 26 -10 0 6 9 -7 20 -31 18 -41 43 -50 37
-14 -2 12 9 21 39 30 38 12 42 17 37 38 -6 22 -3 24 33 24 60 0 112 -43 113
-92 0 -34 21 -37 35 -5 9 20 16 22 99 22 61 -1 91 -5 94 -13 3 -9 -19 -12 -80
-12 -80 0 -82 -1 -54 -15 15 -8 34 -15 41 -15 8 0 21 -7 30 -16 11 -11 35 -17
73 -18 50 -1 58 -4 69 -26 10 -19 13 -21 13 -7 0 10 8 21 18 24 23 9 42 29 35
37 -4 3 -2 6 4 6 11 0 44 -66 64 -130 l14 -45 3 58 c3 50 5 57 18 47 17 -15
18 -7 2 21 -11 17 -10 23 0 26 9 4 7 14 -10 41 l-22 37 33 -28 c24 -20 37 -25
44 -18 16 16 27 13 27 -8 0 -10 6 -34 14 -52 14 -32 14 -31 21 65 7 93 9 100
39 127 28 26 29 30 14 40 -24 14 -23 32 2 24 24 -8 26 7 5 25 -9 7 -13 20 -10
28 3 8 -3 16 -15 19 -11 3 -17 9 -15 14 3 4 -4 23 -15 41 -11 18 -20 44 -19
58 l0 25 12 -23 c6 -13 34 -47 61 -75 81 -83 88 -93 92 -141 2 -25 8 -55 14
-68 7 -18 9 -12 9 31 l1 53 60 -65 c77 -83 96 -107 105 -135 4 -13 10 -21 13
-17 8 7 112 -96 112 -111 0 -7 21 -20 48 -29 26 -9 57 -21 70 -26 30 -12 125
-12 118 0 -4 5 -30 12 -59 16 -63 8 -127 25 -144 38 -21 16 -4 27 25 16 71
-27 265 -16 390 23 51 15 40 32 -15 23 -27 -4 -61 -7 -78 -7 -16 1 -57 2 -90
2 l-60 0 40 16 c82 32 82 34 5 30 -81 -5 -205 5 -217 18 -4 4 -1 11 7 16 20
13 67 13 75 0 9 -15 22 -12 29 6 6 15 -3 16 -84 10 -88 -7 -92 -6 -121 19 -17
14 -37 25 -45 25 -34 0 -104 61 -165 144 -16 21 -29 43 -29 48 0 19 20 6 39
-26 15 -24 27 -33 40 -29 24 6 68 -17 105 -56 17 -17 36 -31 43 -31 8 0 -2 14
-22 31 -19 17 -35 34 -35 38 0 4 27 7 60 5 33 -1 72 1 87 6 23 7 24 8 7 9 -12
1 -25 8 -28 16 -3 9 -11 15 -18 13 -19 -3 -56 20 -69 44 -11 20 -9 20 27 14
22 -4 50 -15 64 -24 17 -12 35 -16 55 -12 l30 6 -25 14 c-14 7 -43 19 -65 26
-40 12 -40 12 -15 23 23 10 22 11 -15 10 -84 -2 -112 1 -131 15 -18 14 -18 15
6 26 23 10 22 10 -12 6 -42 -5 -56 5 -33 24 8 7 15 16 15 21 0 12 -33 11 -48
-1 -6 -6 -10 -8 -8 -4 2 3 -7 17 -20 31 -35 37 -30 52 6 18 30 -28 30 -29 30
-6 0 21 4 23 30 18 29 -6 30 -5 30 31 0 39 -19 92 -32 92 -13 0 -9 45 5 59 10
10 8 15 -7 26 -25 19 -15 56 20 72 22 10 25 10 20 -3 -3 -9 -1 -12 4 -9 6 3
10 17 10 29 0 31 20 46 64 48 41 1 61 18 23 18 -25 0 -44 25 -27 35 6 4 10 17
10 31 0 15 5 24 13 22 6 -1 27 6 45 15 29 16 70 25 124 26 31 1 39 34 22 92
-9 30 -17 55 -19 57 -2 2 -20 -5 -42 -16 -45 -23 -147 -42 -226 -42 -31 0 -79
-5 -107 -11 -40 -9 -51 -15 -56 -35 -3 -13 -11 -24 -16 -24 -6 0 -8 9 -5 20 4
16 1 20 -11 16 -9 -2 -33 -7 -52 -11 -19 -4 -75 -20 -124 -36 -49 -16 -107
-29 -128 -29 -21 0 -38 -4 -38 -9 0 -8 42 -17 118 -24 18 -2 39 -12 46 -22 12
-16 16 -17 30 -6 11 9 16 10 16 2 0 -6 -4 -11 -8 -11 -5 0 -17 -17 -27 -37
-17 -34 -19 -35 -23 -16 -5 30 -43 55 -121 81 -59 20 -67 21 -88 6 -13 -8 -33
-12 -43 -9 -31 10 -44 -4 -24 -26 26 -29 7 -39 -48 -27 -54 13 -70 42 -17 31
25 -5 31 -3 27 8 -3 8 -18 14 -36 14 -17 0 -37 6 -43 13 -14 13 -49 17 -49 4
0 -4 10 -12 22 -17 30 -13 34 -39 9 -64 -29 -29 -27 -51 5 -51 15 0 23 -4 19
-10 -4 -6 -15 -8 -26 -5 -10 4 -19 3 -20 -2 0 -4 -2 -18 -5 -30 -4 -21 0 -23
46 -23 32 0 50 -4 50 -12 0 -6 11 -1 24 11 18 17 26 19 32 10 4 -8 2 -15 -5
-17 -7 -2 -21 -13 -31 -25 -16 -16 -30 -20 -74 -18 -46 2 -57 -1 -65 -18 -8
-13 -8 -22 -1 -26 6 -3 13 1 16 9 3 9 12 16 20 16 9 0 1 -18 -23 -50 -38 -52
-57 -61 -67 -35 -7 19 3 73 15 81 5 3 9 13 9 22 0 9 7 30 15 46 19 36 19 66 0
66 -8 0 -15 -7 -15 -15 0 -32 -23 -65 -47 -65 -14 0 -23 6 -23 15 0 11 -5 12
-25 5 -14 -5 -25 -8 -25 -6 0 10 71 47 79 42 12 -8 41 21 41 39 0 8 10 21 21
29 14 9 19 21 15 31 -9 24 -40 14 -120 -40 -57 -38 -75 -45 -114 -45 -51 1
-43 12 18 25 45 9 130 52 130 65 0 12 -47 13 -54 2 -7 -11 -135 -46 -142 -39
-6 6 71 43 109 53 15 3 29 9 31 13 2 3 -145 5 -327 4 -358 -3 -446 4 -535 41
-31 13 -78 27 -104 31 -27 4 -48 10 -48 14 0 8 -108 52 -215 87 -38 13 -104
35 -145 49 -41 14 -84 25 -95 25 -12 0 -25 3 -29 7 -4 4 -21 8 -39 8 -18 1
-41 6 -52 12 -11 6 -47 14 -80 18 -33 4 -91 18 -130 32 -38 14 -117 36 -174
49 -57 14 -120 32 -139 40 -19 8 -41 14 -50 14 -8 0 -45 12 -81 26 -36 15 -88
28 -116 29 -53 2 -113 28 -156 66 -27 26 -110 59 -224 90 -111 31 -168 51
-195 69 -14 10 -35 20 -46 24 -32 10 -52 37 -56 75 -2 25 -13 42 -45 69 -49
40 -57 31 -14 -16 17 -17 27 -32 23 -33 -45 -6 -78 2 -137 30 -298 143 -324
166 -412 364 -40 90 -46 111 -47 178 -2 84 -20 125 -58 131 -24 3 -73 79 -107
166 -19 48 -19 52 -3 61 15 9 15 11 -6 34 -12 13 -26 37 -31 53 -53 172 -64
219 -69 283 -4 67 5 155 29 256 5 22 11 69 14 105 4 56 33 168 35 133 0 -17
20 -17 20 0 0 7 11 29 25 49 32 48 32 62 -1 55 -26 -5 -26 -5 -20 48 3 28 13
71 21 95 8 23 15 54 15 69 0 24 24 154 36 194 5 16 -16 17 -338 17 -309 0
-346 -2 -369 -18z m-224 -691 c7 -22 66 -61 94 -61 20 0 22 -3 16 -27 -4 -16
-8 -30 -10 -32 -6 -5 -147 104 -173 134 -13 15 -21 33 -18 41 4 12 14 9 45
-12 22 -14 43 -34 46 -43z m81 -252 c3 -5 -2 -9 -11 -9 -21 0 -55 18 -55 30 0
11 57 -8 66 -21z m450 -76 c-10 -10 -19 5 -10 18 6 11 8 11 12 0 2 -7 1 -15
-2 -18z m-452 -1 c-6 -4 -14 -17 -18 -30 -4 -12 -22 -29 -39 -37 -30 -15 -31
-15 -9 1 12 9 22 27 22 39 0 14 7 25 18 28 28 8 38 7 26 -1z m166 -17 c0 -8
-2 -15 -4 -15 -2 0 -6 7 -10 15 -3 8 -1 15 4 15 6 0 10 -7 10 -15z m217 -87
c-9 -69 -37 -95 -37 -34 0 29 20 66 36 66 3 0 3 -15 1 -32z m-37 -274 c0 -8
-4 -14 -10 -14 -5 0 -10 9 -10 21 0 11 5 17 10 14 6 -3 10 -13 10 -21z m80
-303 c0 -14 -18 -23 -30 -16 -6 4 -8 11 -5 16 8 12 35 12 35 0z m-113 -137
c-3 -3 -12 -4 -19 -1 -8 3 -5 6 6 6 11 1 17 -2 13 -5z m-230 -59 c8 -22 -2
-28 -32 -21 -22 6 -25 9 -15 21 16 19 39 19 47 0z m223 3 c0 -9 3 -9 12 0 15
15 38 16 38 2 0 -5 -7 -10 -15 -10 -9 0 -27 -7 -41 -16 -29 -20 -35 -17 -23
14 9 23 29 30 29 10z m-59 -43 c5 4 9 2 9 -3 0 -17 -50 -43 -70 -37 -29 9 -24
27 13 50 30 20 32 20 35 3 2 -10 8 -16 13 -13z m-251 -206 c0 -5 -4 -9 -10 -9
-5 0 -10 7 -10 16 0 8 5 12 10 9 6 -3 10 -10 10 -16z m310 6 c0 -9 -9 -15 -22
-15 -22 1 -23 1 -4 15 25 19 26 19 26 0z m350 -90 c0 -8 -6 -15 -14 -15 -8 0
-17 -11 -20 -24 -6 -26 -61 -51 -93 -43 -14 4 -13 5 4 6 13 0 42 21 65 45 46
48 58 54 58 31z m334 -108 c-10 -28 -24 -19 -24 15 0 29 2 31 15 17 9 -9 13
-23 9 -32z m-622 18 c0 -5 -5 -11 -11 -13 -6 -2 -11 4 -11 13 0 9 5 15 11 13
6 -2 11 -8 11 -13z m239 -93 c-6 -2 -11 -11 -11 -20 0 -9 -14 -28 -31 -42 -16
-14 -40 -34 -53 -45 -12 -11 -32 -21 -44 -23 -27 -4 -48 -15 -126 -65 -63 -41
-81 -44 -41 -7 14 13 25 28 25 34 0 7 15 20 34 30 19 10 48 38 66 62 17 24 39
48 50 54 15 8 17 7 12 -13 -5 -19 -3 -20 10 -9 16 13 14 52 -3 52 -5 0 -9 5
-9 11 0 8 4 8 14 0 7 -6 21 -9 30 -5 11 4 16 1 16 -12 1 -17 2 -17 13 -4 7 8
21 20 32 26 16 9 21 8 24 -4 2 -9 -2 -18 -8 -20z m-830 -12 c6 0 -1 -15 -14
-32 -13 -18 -27 -41 -30 -51 -5 -14 -2 -16 18 -11 15 4 25 2 25 -5 0 -6 -3
-10 -7 -10 -5 1 -15 1 -23 -1 -11 -1 -9 -4 5 -10 14 -6 8 -8 -22 -6 -24 2 -44
-1 -46 -8 -3 -7 -11 -4 -23 7 -15 14 -16 17 -3 12 23 -9 32 42 10 55 -13 8
-13 9 6 10 13 0 32 13 45 30 13 18 28 28 36 25 7 -3 18 -5 23 -5z m569 -30 c0
-5 -4 -10 -10 -10 -5 0 -10 5 -10 10 0 6 5 10 10 10 6 0 10 -4 10 -10z m554
-124 c-3 -14 1 -28 10 -35 26 -21 18 -48 -19 -70 -35 -20 -35 -20 -77 -1 -24
11 -52 20 -62 20 -18 0 -18 -1 -2 -19 26 -28 17 -55 -19 -58 -36 -4 -115 16
-115 28 0 13 34 11 47 -2 17 -17 35 -1 23 21 -13 24 -13 30 1 30 7 0 18 8 25
18 8 10 13 12 14 5 0 -7 5 -13 11 -13 6 0 8 8 4 19 -4 15 1 20 26 25 17 3 42
6 54 6 17 0 24 7 28 29 5 24 10 28 31 24 21 -4 25 -10 20 -27z m-481 -28 c4
-12 4 -24 1 -27 -6 -7 -24 20 -24 37 0 21 17 13 23 -10z m199 -20 c-9 -9 -15
-9 -24 0 -9 9 -7 12 12 12 19 0 21 -3 12 -12z m-1638 -13 c3 -8 12 -12 19 -9
24 9 28 -55 5 -67 -13 -7 -18 -21 -18 -48 0 -25 -5 -41 -15 -45 -8 -3 -15 -12
-15 -21 0 -8 -4 -15 -9 -15 -15 0 -25 21 -14 29 6 3 13 16 17 29 6 17 3 22 -9
22 -14 0 -16 7 -13 35 2 21 0 31 -5 26 -5 -5 -16 -7 -23 -4 -10 4 -4 16 23 43
43 43 49 46 57 25z m1576 -6 c0 -4 10 -5 23 -2 19 5 18 3 -8 -18 -16 -13 -35
-23 -42 -21 -7 2 -13 -6 -13 -18 0 -11 -7 -20 -15 -20 -8 0 -15 6 -15 14 0 7
7 19 15 26 8 7 15 20 15 29 0 10 8 17 20 17 11 0 20 -3 20 -7z m820 -4 c-7 -8
-17 -15 -22 -15 -6 0 -5 7 2 15 7 8 17 15 22 15 6 0 5 -7 -2 -15z m295 5 c3
-5 -1 -10 -9 -10 -9 0 -16 5 -16 10 0 6 4 10 9 10 6 0 13 -4 16 -10z m-585
-13 c0 -17 -42 -15 -48 1 -2 7 7 12 22 12 15 0 26 -6 26 -13z m-1550 -18 c0
-5 -4 -7 -10 -4 -5 3 -18 1 -29 -5 -12 -6 -22 -6 -26 -1 -5 8 14 15 53 20 6 0
12 -4 12 -10z m1957 -31 c-3 -8 -6 -5 -6 6 -1 11 2 17 5 13 3 -3 4 -12 1 -19z
m333 -11 c0 -4 -9 -3 -20 3 -11 6 -20 15 -20 20 0 6 9 5 20 -2 11 -7 20 -16
20 -21z m-1370 4 c0 -6 -5 -13 -10 -16 -15 -9 -43 3 -35 15 8 13 45 13 45 1z
m-210 -11 c0 -5 -2 -10 -4 -10 -3 0 -8 5 -11 10 -3 6 -1 10 4 10 6 0 11 -4 11
-10z m782 -15 c6 -14 18 -25 26 -25 12 0 13 -10 9 -47 -3 -26 -10 -49 -15 -51
-6 -2 -8 -10 -5 -19 5 -13 3 -13 -14 -2 -47 29 -68 106 -41 149 17 26 26 25
40 -5z m866 7 c3 -11 0 -12 -17 -3 -12 7 -27 9 -33 5 -7 -4 -8 -3 -4 5 10 16
48 10 54 -7z m-1254 -28 c34 -24 -8 -18 -46 7 l-33 21 29 -7 c16 -3 39 -13 50
-21z m213 10 c-3 -3 -12 -4 -19 -1 -8 3 -5 6 6 6 11 1 17 -2 13 -5z m614 -48
c-6 -7 -4 -18 5 -30 18 -26 18 -36 -2 -36 -11 0 -14 -6 -9 -20 8 -24 -9 -26
-27 -5 -7 9 -28 31 -45 49 -38 38 -42 50 -13 41 14 -4 20 -2 20 8 0 10 7 13
19 10 10 -3 22 0 26 7 5 8 10 8 21 -1 9 -7 11 -16 5 -23z m-567 14 c24 -9 53
-47 43 -56 -6 -7 -83 34 -98 52 -9 11 -8 14 9 14 11 0 32 -4 46 -10z m-1438
-20 c0 -11 -4 -20 -8 -20 -4 0 -8 9 -8 20 0 11 4 20 8 20 4 0 8 -9 8 -20z
m1172 -27 c14 -11 14 -13 1 -13 -21 0 -39 21 -39 45 1 20 1 20 12 0 6 -11 18
-26 26 -32z m1615 32 c-3 -9 -8 -14 -10 -11 -3 3 -2 9 2 15 9 16 15 13 8 -4z
m-1403 -33 c30 -11 56 -27 58 -36 2 -9 15 -19 28 -22 l25 -6 -27 -14 c-24 -13
-30 -12 -51 1 -20 13 -22 19 -13 31 10 11 9 15 -5 20 -9 4 -20 3 -24 -3 -7
-11 -71 -10 -89 1 -16 9 -15 29 1 45 13 13 15 13 97 -17z m1432 -20 c7 -23 80
-28 119 -8 45 23 162 10 241 -27 52 -24 67 -36 64 -49 -2 -11 2 -18 10 -18 8
0 14 -9 14 -20 0 -31 29 -37 49 -11 l17 22 31 -33 c20 -22 30 -42 29 -58 -2
-21 -8 -25 -38 -28 -26 -2 -40 2 -50 15 -17 23 -58 46 -58 34 0 -6 10 -17 21
-25 21 -14 21 -16 5 -40 -9 -15 -19 -26 -23 -26 -3 0 -21 16 -40 35 -19 19
-40 35 -48 35 -8 0 -15 4 -15 10 0 5 -16 30 -35 55 -19 25 -38 53 -43 61 -7
12 -19 14 -60 8 -31 -4 -52 -12 -52 -19 0 -7 -7 -18 -15 -25 -20 -16 -19 -22
5 -48 15 -16 28 -20 45 -16 17 4 25 2 26 -7 0 -8 2 -25 5 -39 5 -36 -21 -65
-59 -65 -26 0 -33 -5 -35 -22 -3 -17 2 -23 15 -23 40 1 98 20 110 36 14 19 27
12 28 -15 0 -21 59 -91 77 -91 7 0 5 -5 -5 -11 -18 -10 -18 -11 -1 -24 16 -11
15 -14 -14 -29 -19 -10 -40 -33 -50 -54 -9 -20 -21 -40 -26 -43 -21 -16 16
-17 58 -3 37 13 46 20 46 39 0 12 8 26 18 29 40 15 72 38 72 52 0 8 5 12 11 9
6 -4 21 3 35 16 24 22 24 22 39 3 17 -23 17 -25 5 -44 -5 -8 -10 -11 -10 -6 0
5 -7 3 -15 -4 -8 -7 -15 -29 -15 -49 -1 -32 -2 -34 -14 -19 -7 10 -15 15 -19
12 -3 -3 -14 0 -25 7 -25 16 -50 6 -62 -26 -5 -14 -14 -25 -20 -25 -5 0 -12
-11 -16 -25 -3 -14 -13 -25 -21 -25 -8 0 -26 -9 -40 -20 -14 -11 -34 -20 -44
-20 -14 0 -19 -7 -19 -26 0 -25 1 -25 58 -19 70 8 122 23 122 36 0 6 25 21 56
35 30 13 65 33 76 44 12 11 25 20 29 20 4 0 18 4 31 9 13 5 26 9 31 10 4 0 21
8 38 16 24 13 29 20 23 37 -4 14 -2 18 5 14 6 -4 11 -14 11 -22 0 -8 10 -14
25 -14 16 0 25 6 25 15 0 18 17 20 22 4 7 -21 87 -14 108 9 11 12 20 26 20 32
0 5 4 10 9 10 16 0 23 -20 13 -33 -8 -9 -2 -12 24 -12 19 0 34 3 34 7 0 4 9 9
19 13 10 3 24 19 31 34 8 19 21 31 41 35 20 4 27 10 23 21 -3 8 -1 15 4 15 18
0 23 -17 13 -44 -7 -18 -20 -27 -46 -32 -32 -6 -36 -10 -31 -29 4 -14 0 -28
-9 -35 -8 -7 -12 -16 -9 -21 3 -5 -2 -12 -12 -16 -16 -6 -16 -7 0 -19 15 -11
12 -12 -23 -9 -23 1 -48 8 -56 15 -12 10 -16 8 -24 -11 -5 -13 -7 -27 -4 -31
2 -5 -3 -8 -12 -8 -9 0 -23 -6 -31 -14 -8 -8 -34 -18 -59 -22 -29 -4 -45 -11
-45 -20 0 -8 -10 -18 -23 -23 -13 -5 -29 -16 -36 -25 -7 -9 -22 -16 -33 -16
-23 0 -68 -28 -87 -53 -7 -10 -19 -16 -27 -13 -7 3 -16 -4 -20 -16 -6 -19 -12
-20 -75 -16 -50 4 -74 1 -89 -9 -17 -12 -105 -26 -160 -26 -40 0 -196 34 -229
50 -30 15 -36 24 -39 54 l-3 36 62 -13 c35 -7 66 -11 71 -8 5 3 -1 18 -12 34
-11 15 -20 35 -20 44 0 9 -8 16 -19 16 -11 0 -27 3 -35 6 -11 4 -15 2 -11 -8
8 -20 -17 -39 -46 -35 -22 4 -24 9 -24 57 0 34 -5 55 -12 57 -16 6 -111 -25
-119 -38 -3 -6 6 -22 20 -36 34 -34 33 -48 -7 -97 -69 -85 -99 -139 -95 -168
3 -15 1 -28 -4 -28 -4 0 -8 4 -8 8 0 5 -6 16 -13 26 -12 17 -15 17 -48 1 -27
-13 -40 -29 -54 -66 -22 -54 -32 -61 -41 -25 -11 44 -1 70 33 86 18 8 33 20
33 26 0 6 9 19 20 29 11 10 20 28 20 40 0 14 7 25 19 28 12 3 25 23 36 56 9
29 26 57 36 64 27 17 23 27 -11 27 -19 0 -33 7 -40 19 -13 25 -13 41 0 21 5
-8 10 -10 10 -4 0 7 9 14 21 17 12 3 18 10 15 15 -3 5 3 17 13 26 16 14 19 15
24 2 5 -12 11 -12 41 2 36 17 36 17 33 73 -2 30 -7 60 -10 67 -13 20 -70 43
-81 32 -16 -16 -26 -12 -26 13 0 14 11 28 30 39 32 18 45 66 15 54 -8 -3 -22
-9 -30 -12 -11 -5 -15 1 -15 19 0 26 -20 40 -45 31 -8 -4 -15 -1 -15 4 0 11
31 24 46 21 5 -1 21 1 36 5 17 5 34 3 50 -7 12 -9 40 -19 61 -22 33 -7 37 -5
37 14 0 25 9 27 25 5 11 -15 16 -14 58 17 25 19 46 41 47 50 0 11 15 20 45 28
25 6 45 15 45 20 0 23 -14 41 -30 41 -29 0 -50 11 -50 26 0 9 -12 14 -32 14
-31 1 -32 1 -14 15 26 20 43 19 48 -3z m-2492 -1 c0 -16 -26 -30 -85 -45 -32
-9 -66 -23 -75 -31 -9 -8 -21 -15 -26 -15 -5 0 -17 -9 -27 -20 -9 -11 -23 -20
-31 -20 -7 0 -19 -7 -26 -15 -11 -13 -8 -15 14 -15 14 0 26 4 26 9 0 5 12 11
26 14 21 4 25 1 21 -14 -3 -12 0 -19 9 -19 8 0 13 6 12 12 -2 9 7 12 26 9 16
-1 32 3 36 9 4 7 16 10 26 8 18 -5 18 -5 -1 -13 -11 -5 -23 -13 -27 -18 -3 -6
-17 -11 -30 -12 -13 -1 -27 -11 -33 -23 -5 -12 -16 -20 -22 -17 -7 2 -13 0
-13 -5 0 -6 -9 -10 -20 -10 -11 0 -20 -4 -20 -8 0 -4 -16 -9 -35 -10 -27 -2
-33 1 -29 13 5 11 -1 15 -20 15 -14 0 -26 3 -26 8 0 15 16 30 35 34 19 5 19 5
1 13 -10 4 -21 4 -25 -2 -3 -5 -21 -13 -38 -16 -45 -9 -89 28 -79 66 4 19 11
25 23 20 12 -5 14 -3 8 7 -6 10 -3 12 14 7 29 -7 71 11 71 31 0 13 3 13 22 0
19 -13 27 -13 70 4 27 10 59 18 73 18 14 0 42 9 62 20 38 20 113 28 113 11z
m816 -14 l27 -24 -48 -6 c-27 -4 -50 -5 -53 -2 -7 6 26 55 38 55 5 0 21 -11
36 -23z m949 13 c3 -5 -1 -10 -10 -10 -9 0 -13 5 -10 10 3 6 8 10 10 10 2 0 7
-4 10 -10z m-2177 -30 c36 0 23 -8 -24 -16 -21 -3 -43 -8 -49 -12 -5 -3 1 6
15 19 14 13 27 21 28 17 2 -5 15 -8 30 -8z m2322 -1 c0 -6 -4 -7 -10 -4 -5 3
-10 11 -10 16 0 6 5 7 10 4 6 -3 10 -11 10 -16z m-106 -14 c3 -9 0 -15 -9 -15
-16 0 -27 14 -18 24 10 10 21 7 27 -9z m-63 -5 c19 -11 27 -54 11 -64 -10 -6
-21 2 -45 31 -29 34 -8 55 34 33z m146 -12 c-3 -8 -6 -5 -6 6 -1 11 2 17 5 13
3 -3 4 -12 1 -19z m420 -20 c-3 -8 -6 -5 -6 6 -1 11 2 17 5 13 3 -3 4 -12 1
-19z m-885 -13 c17 -3 33 -7 36 -9 3 -3 5 -30 6 -59 0 -60 -23 -107 -53 -107
-23 0 -63 51 -82 103 -13 38 -13 40 14 63 16 13 33 22 38 18 5 -3 24 -7 41 -9z
m108 -23 c0 -13 -3 -12 -15 4 -19 25 -19 40 0 24 8 -7 15 -20 15 -28z m-1520
18 c0 -5 -4 -10 -9 -10 -6 0 -13 5 -16 10 -3 6 1 10 9 10 9 0 16 -4 16 -10z
m560 -5 c0 -12 -54 -65 -63 -62 -6 2 -20 -7 -33 -20 -13 -13 -31 -23 -41 -23
-10 0 -35 -16 -57 -35 -21 -19 -44 -35 -51 -35 -8 0 -21 -8 -30 -17 -15 -14
-25 -18 -68 -22 -5 -1 -5 -5 -2 -11 3 -5 -2 -10 -12 -10 -10 0 -42 -9 -71 -20
-62 -24 -82 -25 -82 -5 0 22 -16 18 -38 -10 -18 -23 -32 -24 -32 -3 0 16 97
108 113 108 8 0 25 8 38 18 31 24 137 59 169 57 14 -1 36 6 49 16 13 11 31 19
40 19 14 0 14 -2 1 -10 -11 -7 -12 -10 -2 -10 8 0 16 8 18 18 4 13 17 17 52
19 35 1 50 7 61 22 12 19 41 30 41 16z m572 -15 c27 -25 51 -26 44 -2 -5 15
-1 17 29 14 19 -2 38 -8 41 -14 10 -16 -17 -38 -41 -32 -13 3 -25 2 -28 -3 -8
-13 -146 -8 -180 6 -34 13 -27 31 13 31 16 0 32 5 35 10 11 17 65 11 87 -10z
m2144 -27 c-10 -10 -19 5 -10 18 6 11 8 11 12 0 2 -7 1 -15 -2 -18z m-989 -2
c-3 -12 1 -21 9 -23 9 -2 11 -8 4 -18 -8 -13 -11 -12 -24 5 -20 26 -20 55 0
55 11 0 15 -6 11 -19z m1091 -31 c-7 -11 -18 -20 -23 -20 -6 0 -11 9 -11 20 0
14 7 20 23 20 21 0 22 -2 11 -20z m-2218 -10 c11 -7 8 -10 -13 -15 -31 -8 -97
2 -97 14 0 12 92 12 110 1z m4450 -40 c0 -5 -5 -10 -11 -10 -5 0 -7 5 -4 10 3
6 8 10 11 10 2 0 4 -4 4 -10z m57 -12 c-3 -8 -6 -5 -6 6 -1 11 2 17 5 13 3 -3
4 -12 1 -19z m-2289 -1 c19 11 40 0 97 -53 12 -11 28 -18 34 -16 10 3 10 0 2
-16 -6 -10 -7 -22 -4 -26 3 -3 -1 -6 -10 -6 -9 0 -16 6 -14 13 1 8 -16 12 -60
12 -35 1 -68 6 -75 13 -9 9 -5 12 21 12 19 0 30 4 26 10 -3 6 -14 10 -24 10
-26 0 -66 34 -57 48 5 9 12 8 26 -1 15 -9 24 -9 38 0z m437 -9 c-19 -11 -30
-5 -21 11 4 6 14 7 22 4 15 -5 14 -7 -1 -15z m-4642 5 c-7 -2 -19 -2 -25 0 -7
3 -2 5 12 5 14 0 19 -2 13 -5z m603 -18 c14 -13 12 -15 -15 -15 -39 0 -41 20
-3 29 2 1 10 -6 18 -14z m44 1 c0 -3 -4 -8 -10 -11 -5 -3 -10 -1 -10 4 0 6 5
11 10 11 6 0 10 -2 10 -4z m3246 -51 c-3 -8 3 -16 12 -18 10 -3 7 -5 -9 -6
-22 -1 -26 3 -24 22 3 29 3 29 16 22 6 -4 8 -13 5 -20z m2148 3 c10 -32 14
-100 6 -91 -11 12 -28 113 -20 113 4 0 11 -10 14 -22z m46 12 c0 -5 -2 -10 -4
-10 -3 0 -8 5 -11 10 -3 6 -1 10 4 10 6 0 11 -4 11 -10z m-1394 -58 c-12 -11
-37 24 -30 42 6 16 9 15 21 -9 8 -15 12 -29 9 -33z m-926 38 c0 -5 -7 -10 -16
-10 -8 0 -12 5 -9 10 3 6 10 10 16 10 5 0 9 -4 9 -10z m2320 -10 c0 -5 -5 -10
-11 -10 -5 0 -7 5 -4 10 3 6 8 10 11 10 2 0 4 -4 4 -10z m-2115 -10 c-3 -5
-11 -10 -16 -10 -6 0 -7 5 -4 10 3 6 11 10 16 10 6 0 7 -4 4 -10z m155 0 c20
-6 21 -8 5 -8 -11 0 -29 3 -40 8 -25 11 1 11 35 0z m1760 -10 c0 -5 -4 -10
-10 -10 -5 0 -10 5 -10 10 0 6 5 10 10 10 6 0 10 -4 10 -10z m536 -9 c-10 -11
-15 -25 -11 -30 4 -7 -7 -11 -29 -11 -20 0 -36 3 -36 8 1 5 64 42 89 51 2 0
-4 -8 -13 -18z m-2226 -1 c13 -9 13 -11 0 -20 -23 -15 -36 -12 -36 10 0 22 13
25 36 10z m-330 -10 c-20 -13 -43 -13 -35 0 3 6 16 10 28 10 18 0 19 -2 7 -10z
m669 -17 c6 -11 6 -24 0 -35 -13 -24 -29 -23 -29 2 0 16 -7 20 -32 20 -36 0
-28 16 12 23 14 2 28 5 32 6 4 0 11 -7 17 -16z m632 -57 c92 -97 119 -129 119
-141 0 -6 11 -22 25 -35 27 -26 75 -121 75 -151 0 -25 56 -63 78 -53 9 4 22 8
27 9 21 1 58 44 52 59 -10 24 9 19 39 -11 26 -25 27 -26 40 -8 21 28 17 35
-16 35 -19 0 -30 5 -30 14 0 21 25 37 45 29 14 -5 17 -3 12 9 -8 23 24 48 64
48 31 0 34 -3 34 -27 -1 -26 -11 -48 -55 -113 -28 -43 -31 -58 -9 -65 10 -4
19 -15 19 -25 0 -17 -4 -18 -26 -10 -34 13 -34 13 -34 -12 0 -19 -2 -20 -10
-8 -7 12 -13 6 -27 -27 -19 -45 -39 -61 -57 -43 -13 13 -46 13 -46 -1 0 -8 -4
-8 -15 1 -8 6 -19 9 -24 6 -6 -4 -15 3 -21 14 -14 26 -24 25 -55 -6 -18 -18
-33 -24 -48 -20 -12 3 -33 6 -47 6 l-25 1 24 13 c16 9 20 16 12 20 -7 4 -24 0
-38 -10 -15 -9 -42 -17 -61 -16 -21 1 -41 -6 -54 -18 -16 -15 -25 -17 -40 -9
-13 7 -23 7 -32 0 -7 -6 -33 -8 -62 -5 -46 6 -52 4 -68 -20 -9 -15 -14 -31
-10 -37 3 -6 3 -20 0 -32 -5 -21 -10 -22 -126 -23 -66 0 -120 3 -120 8 0 4 9
9 20 9 38 3 80 18 97 35 9 8 26 11 49 7 35 -6 36 -5 29 18 -4 13 -18 32 -31
42 -13 10 -24 24 -24 30 0 7 -9 23 -20 37 -24 30 -25 53 -4 74 21 22 13 43
-51 122 -52 66 -72 104 -54 104 5 0 9 -8 9 -17 0 -20 28 -53 46 -53 10 0 9 7
-2 30 -9 16 -19 32 -25 35 -5 4 -9 13 -9 22 0 26 38 -14 66 -69 13 -27 29 -48
34 -48 13 0 13 7 0 31 -16 29 4 24 43 -11 27 -23 33 -35 29 -55 -3 -19 0 -25
13 -25 15 0 17 6 12 36 -4 24 0 45 12 67 14 25 15 36 7 50 -8 12 -7 22 2 38
10 16 11 24 1 35 -21 25 -1 27 37 5 20 -12 39 -19 42 -16 10 10 -18 56 -40 64
-13 5 -32 18 -42 30 -19 21 -19 21 3 21 12 0 32 -11 45 -25 24 -25 41 -30 70
-19 18 7 23 88 6 99 -21 13 -9 21 26 17 29 -4 49 -17 95 -66z m-4971 55 c0 -5
-7 -11 -15 -15 -15 -5 -20 5 -8 17 9 10 23 9 23 -2z m3560 -5 c0 -23 -16 -27
-17 -5 -1 10 2 19 8 19 5 0 9 -6 9 -14z m-3430 -20 c0 -3 -4 -8 -10 -11 -5 -3
-10 -1 -10 4 0 6 5 11 10 11 6 0 10 -2 10 -4z m3980 -17 c0 -24 -23 -21 -28 4
-2 10 3 17 12 17 10 0 16 -9 16 -21z m1780 -21 c0 -6 -7 -5 -15 2 -8 7 -15 17
-15 22 0 6 7 5 15 -2 8 -7 15 -17 15 -22z m-1441 -33 c-1 -11 -3 -14 -6 -7 -2
6 -11 12 -19 12 -17 0 -18 22 -2 38 10 10 14 9 20 -5 3 -10 7 -27 7 -38z
m-4216 33 c40 -19 38 -64 -3 -73 -47 -10 -68 15 -33 40 15 11 15 15 4 29 -16
19 -5 20 32 4z m6077 0 c0 -7 16 -33 35 -57 27 -34 33 -49 28 -70 -3 -14 -7
-27 -8 -29 -4 -5 -32 44 -49 88 -10 25 -25 53 -33 63 -15 16 -14 17 5 17 12 0
22 -6 22 -12z m-343 -35 c-3 -10 -5 -4 -5 12 0 17 2 24 5 18 2 -7 2 -21 0 -30z
m-1437 7 c0 -11 -4 -20 -10 -20 -5 0 -10 9 -10 20 0 11 5 20 10 20 6 0 10 -9
10 -20z m1377 -10 c-61 -38 -82 -38 -37 0 19 17 45 30 59 30 22 0 18 -4 -22
-30z m-5600 14 c-3 -3 -12 -4 -19 -1 -8 3 -5 6 6 6 11 1 17 -2 13 -5z m54 -11
c10 -11 10 -14 2 -9 -8 4 -13 1 -13 -8 0 -9 -5 -16 -11 -16 -5 0 -7 5 -4 10 4
6 1 17 -5 25 -10 12 -9 15 3 15 8 0 21 -8 28 -17z m4334 -3 c3 -6 -1 -7 -9 -4
-9 4 -18 -1 -22 -10 -3 -9 -13 -16 -21 -16 -11 0 -8 6 8 20 27 22 35 24 44 10z
m142 4 c-3 -3 -12 -4 -19 -1 -8 3 -5 6 6 6 11 1 17 -2 13 -5z m-537 -40 c0
-26 -52 -94 -71 -94 -25 0 -24 27 1 42 11 7 20 19 20 27 0 19 30 52 41 45 5
-3 9 -12 9 -20z m-2836 7 c4 -5 18 -5 35 2 22 8 33 7 52 -6 23 -16 20 -17 -64
-17 -81 0 -117 13 -64 23 12 2 25 5 29 6 4 0 9 -3 12 -8z m2960 -7 c4 -10 1
-14 -6 -12 -15 5 -23 28 -10 28 5 0 13 -7 16 -16z m91 -13 c3 -5 1 -12 -5 -16
-5 -3 -10 1 -10 9 0 18 6 21 15 7z m-2915 -16 c0 -8 -4 -15 -10 -15 -5 0 -10
7 -10 15 0 8 5 15 10 15 6 0 10 -7 10 -15z m3086 -20 c8 -27 8 -39 -1 -52 -11
-15 -15 -15 -46 3 -19 11 -35 28 -37 37 -3 14 2 16 28 11 17 -4 30 -3 29 2 -8
44 13 43 27 -1z m1614 -32 c0 -7 -6 -13 -13 -13 -7 0 -22 -6 -33 -14 -18 -14
-16 -17 36 -66 34 -32 47 -50 35 -47 -11 3 -29 8 -40 11 -17 5 -20 1 -22 -29
-2 -34 11 -48 20 -22 3 9 16 6 50 -10 26 -13 53 -20 60 -17 8 3 17 -3 21 -13
3 -10 9 -24 12 -32 5 -11 -1 -12 -30 -7 -23 4 -36 3 -36 -4 0 -15 -41 -11 -73
8 -20 12 -39 41 -63 95 -37 86 -39 91 -23 81 7 -4 9 0 6 12 -3 11 -9 34 -12
52 l-7 33 37 -7 37 -7 -7 34 -7 34 26 -29 c14 -16 26 -35 26 -43z m-1877 27
c3 0 4 7 1 15 -4 8 -2 15 4 15 13 0 26 -55 17 -70 -3 -5 1 -10 9 -10 16 0 19
-29 6 -70 -22 -69 -19 -65 -35 -44 -19 25 -19 49 1 79 10 15 12 25 5 25 -6 0
-11 -6 -11 -12 -1 -7 -7 -2 -15 12 -12 22 -14 23 -20 8 -4 -10 -4 -25 -1 -34
5 -14 4 -15 -9 -4 -8 7 -15 19 -15 27 0 9 -8 13 -22 11 -33 -5 -33 19 0 36 16
8 32 23 36 32 6 15 8 16 24 0 10 -9 21 -16 25 -16z m1678 -25 c-1 -15 -24 -12
-29 3 -3 9 2 13 12 10 10 -1 17 -7 17 -13z m-28 -11 c8 -8 -14 -54 -35 -76
-10 -10 -18 -30 -18 -44 0 -20 -3 -24 -12 -17 -20 15 -41 10 -53 -12 -12 -23
-70 -85 -79 -85 -17 0 -1 30 37 72 53 59 92 105 118 141 20 27 30 32 42 21z
m-2043 -24 c0 -5 -5 -10 -11 -10 -5 0 -7 5 -4 10 3 6 8 10 11 10 2 0 4 -4 4
-10z m2086 -47 c-11 -11 -26 10 -26 35 l1 27 15 -28 c9 -16 13 -31 10 -34z
m294 32 c0 -30 -25 -34 -39 -6 -12 21 -5 31 21 31 13 0 18 -7 18 -25z m-5340
5 c0 -5 -4 -10 -9 -10 -6 0 -13 5 -16 10 -3 6 1 10 9 10 9 0 16 -4 16 -10z
m3018 -2 c-6 -18 -28 -21 -28 -4 0 9 7 16 16 16 9 0 14 -5 12 -12z m-1363 -8
c3 -6 -1 -13 -10 -16 -19 -8 -30 0 -20 15 8 14 22 14 30 1z m222 -40 c-6 -51
-26 -60 -25 -11 0 28 5 41 14 41 9 0 13 -10 11 -30z m3023 20 c0 -5 -4 -10 -9
-10 -6 0 -13 5 -16 10 -3 6 1 10 9 10 9 0 16 -4 16 -10z m-1782 -33 c4 -29 -6
-35 -26 -15 -14 14 -52 -16 -52 -42 0 -20 -29 -80 -38 -80 -18 1 -34 19 -27
30 5 9 4 11 -3 6 -22 -14 -12 6 13 26 14 11 25 25 25 33 0 16 80 77 95 72 5
-2 11 -16 13 -30z m-3147 -15 c-7 -2 -18 1 -23 6 -8 8 -4 9 13 5 13 -4 18 -8
10 -11z m3459 -3 c0 -5 -4 -9 -10 -9 -5 0 -10 7 -10 16 0 8 5 12 10 9 6 -3 10
-10 10 -16z m1564 -56 c-27 -52 -34 -39 -10 21 16 40 22 49 25 33 1 -12 -5
-36 -15 -54z m-1674 42 c0 -8 -4 -15 -10 -15 -5 0 -7 7 -4 15 4 8 8 15 10 15
2 0 4 -7 4 -15z m-3400 -9 c0 -3 -4 -8 -10 -11 -5 -3 -10 -1 -10 4 0 6 5 11
10 11 6 0 10 -2 10 -4z m3556 -4 c6 -4 14 -24 17 -44 4 -29 2 -38 -9 -38 -8 0
-14 7 -14 15 0 8 -6 15 -14 15 -20 0 -26 12 -19 38 5 22 19 27 39 14z m-3721
-22 c-3 -5 -10 -10 -16 -10 -5 0 -9 5 -9 10 0 6 7 10 16 10 8 0 12 -4 9 -10z
m3540 -9 c-3 -6 -11 -8 -17 -5 -6 4 -5 9 3 15 16 10 23 4 14 -10z m1855 -11
c0 -5 -5 -10 -11 -10 -5 0 -7 5 -4 10 3 6 8 10 11 10 2 0 4 -4 4 -10z m-5118
-35 c0 -5 -5 -11 -11 -13 -6 -2 -11 4 -11 13 0 9 5 15 11 13 6 -2 11 -8 11
-13z m2888 -21 c0 -8 -4 -12 -10 -9 -5 3 -10 10 -10 16 0 5 5 9 10 9 6 0 10
-7 10 -16z m2019 -1 c-17 -21 -31 -33 -42 -33 -8 0 44 49 52 50 2 0 -3 -8 -10
-17z m-4852 -9 c-3 -3 -12 -4 -19 -1 -8 3 -5 6 6 6 11 1 17 -2 13 -5z m3178
-15 c0 -8 -15 -18 -32 -24 -18 -5 -32 -14 -31 -20 2 -5 -7 -27 -20 -49 -29
-49 -48 -36 -50 33 -1 48 0 50 36 64 44 17 97 15 97 -4z m2168 -27 c54 -56 28
-65 -84 -31 -56 17 -67 24 -59 34 10 13 36 19 96 23 11 1 32 -11 47 -26z
m-493 13 c0 -3 -10 -20 -22 -38 -13 -18 -24 -34 -25 -36 -2 -2 -6 -2 -9 2 -8
8 34 77 47 77 5 0 9 -2 9 -5z m-4830 -9 c0 -3 -4 -8 -10 -11 -5 -3 -10 -1 -10
4 0 6 5 11 10 11 6 0 10 -2 10 -4z m2894 -49 c18 -49 21 -87 6 -87 -17 0 -62
49 -55 60 3 6 -1 10 -9 10 -9 0 -16 5 -16 10 0 6 9 10 20 10 13 0 20 7 20 20
0 34 16 22 34 -23z m-2934 29 c0 -3 -4 -8 -10 -11 -5 -3 -10 -1 -10 4 0 6 5
11 10 11 6 0 10 -2 10 -4z m3026 -5 c-4 -5 2 -23 11 -40 17 -29 17 -31 0 -48
-18 -17 -19 -17 -38 6 -21 26 -26 77 -6 84 21 9 38 8 33 -2z m-2908 -28 c-2
-10 -12 -18 -23 -18 -11 0 -26 -4 -32 -8 -18 -12 -16 0 5 22 22 25 55 27 50 4z
m-94 -2 c9 -13 -4 -42 -16 -35 -5 3 -7 12 -4 19 3 8 -3 16 -12 18 -12 3 -11 5
5 6 12 0 24 -3 27 -8z m2506 -21 c9 -13 16 -16 21 -8 4 6 32 13 62 16 46 4 58
1 75 -16 16 -16 34 -21 69 -22 99 0 122 -6 123 -30 0 -3 -34 -4 -75 -2 -56 3
-81 0 -99 -11 -21 -14 -25 -14 -38 0 -13 13 -23 13 -64 3 -90 -21 -107 -23
-100 -11 4 6 3 11 -3 11 -5 0 -13 -4 -16 -10 -3 -5 -15 -10 -26 -10 -14 0 -19
7 -19 24 0 14 -5 28 -11 31 -16 11 -23 -3 -10 -19 9 -11 8 -15 -5 -20 -25 -10
-66 4 -60 21 3 8 6 21 6 28 0 30 31 45 94 45 50 0 64 -4 76 -20z m-1633 4 c-3
-3 -12 -4 -19 -1 -8 3 -5 6 6 6 11 1 17 -2 13 -5z m1303 -9 c0 -8 -4 -15 -10
-15 -5 0 -10 7 -10 15 0 8 5 15 10 15 6 0 10 -7 10 -15z m-1540 -15 c0 -13 -7
-20 -18 -20 -26 0 -34 11 -21 27 17 20 39 16 39 -7z m1594 -6 c3 -9 6 -24 6
-35 0 -16 -5 -18 -27 -13 -35 9 -43 13 -43 25 0 5 9 9 20 9 11 0 20 7 20 15 0
20 16 19 24 -1z m-1344 -4 c0 -5 -5 -10 -11 -10 -5 0 -7 5 -4 10 3 6 8 10 11
10 2 0 4 -4 4 -10z m2980 0 c0 -5 -4 -10 -10 -10 -5 0 -10 5 -10 10 0 6 5 10
10 10 6 0 10 -4 10 -10z m-1839 -33 c-1 -12 -15 -9 -19 4 -3 6 1 10 8 8 6 -3
11 -8 11 -12z m1859 -7 c-8 -5 -22 -10 -30 -10 -13 0 -13 1 0 10 8 5 22 10 30
10 13 0 13 -1 0 -10z m-1967 -33 c-3 -5 -10 -4 -15 1 -6 6 -7 16 -3 22 6 9 9
9 16 -1 4 -7 5 -17 2 -22z m2991 17 c17 -17 22 -59 7 -68 -4 -3 -19 6 -31 19
-26 28 -17 34 12 8 27 -24 24 5 -4 34 -24 25 -9 32 16 7z m-2736 -25 c3 -31
43 -119 53 -119 5 0 6 15 2 33 -4 21 -2 29 4 22 6 -5 13 -29 17 -52 5 -35 3
-44 -13 -52 -16 -9 -23 -5 -46 24 -14 20 -30 33 -35 30 -5 -3 -13 3 -19 12 -9
15 -10 12 -11 -15 0 -24 -4 -31 -12 -26 -25 15 -45 11 -40 -8 2 -10 -1 -18 -7
-18 -6 0 -11 6 -11 14 0 8 -8 24 -19 37 -16 20 -21 21 -35 10 -9 -7 -16 -10
-16 -5 1 8 29 42 100 120 28 31 84 26 88 -7z m757 11 c7 -11 -12 -50 -24 -50
-15 0 -22 32 -10 46 13 16 25 18 34 4z m-603 -37 c39 -38 47 -53 27 -53 -15 0
-99 68 -99 81 0 21 37 7 72 -28z m-295 12 c8 -22 -6 -33 -17 -15 -13 20 -12
30 0 30 6 0 13 -7 17 -15z m-91 -6 c3 -6 1 -16 -5 -22 -9 -9 -14 -8 -21 3 -5
8 -10 18 -10 23 0 11 28 8 36 -4z m1860 -45 c-4 -12 -10 -14 -17 -7 -5 5 -7
17 -3 27 4 12 10 14 17 7 5 -5 7 -17 3 -27z m-3776 16 c0 -5 -5 -10 -11 -10
-5 0 -7 5 -4 10 3 6 8 10 11 10 2 0 4 -4 4 -10z m3440 -20 c0 -22 10 -26 26
-10 16 16 44 1 44 -23 0 -22 -38 -60 -107 -108 -24 -17 -43 -34 -43 -39 0 -6
-7 -10 -15 -10 -8 0 -24 -9 -34 -19 -18 -18 -39 -31 -111 -68 -61 -32 -80 -47
-80 -65 0 -22 -18 -24 -26 -3 -4 8 -13 15 -20 15 -21 0 -29 27 -16 53 6 12 12
31 14 42 2 13 12 21 31 23 15 2 27 8 27 14 0 6 7 19 16 29 9 10 24 32 33 50
23 43 46 58 63 41 10 -10 8 -14 -10 -18 -12 -4 -22 -12 -22 -20 0 -22 18 -25
37 -6 10 11 28 25 41 31 12 6 22 20 22 31 0 25 21 31 43 12 9 -8 17 -11 17 -6
0 5 9 24 20 42 22 36 50 43 50 12z m-3052 -22 c-2 -13 -11 -24 -20 -26 -21 -4
-24 18 -6 36 19 19 30 14 26 -10z m1400 -9 c19 -17 48 -36 64 -41 23 -8 27
-14 22 -32 -20 -62 -23 -66 -59 -66 -29 0 -35 4 -35 20 0 23 -27 70 -47 83
-14 8 -18 49 -6 60 12 13 25 7 61 -24z m1182 22 c0 -12 -20 -25 -27 -18 -7 7
6 27 18 27 5 0 9 -4 9 -9z m2411 -43 c12 -23 1 -23 -30 1 -14 11 -21 23 -17
30 9 14 31 0 47 -31z m-4871 12 c0 -5 -7 -10 -16 -10 -8 0 -12 5 -9 10 3 6 10
10 16 10 5 0 9 -4 9 -10z m4961 -37 c13 -11 18 -11 21 -2 5 15 38 5 38 -11 0
-6 -25 -10 -60 -10 -58 0 -60 1 -60 26 0 22 3 24 23 18 12 -3 29 -13 38 -21z
m119 -7 c0 -11 -19 -15 -25 -6 -3 5 1 10 9 10 9 0 16 -2 16 -4z m-5255 -16 c3
-6 -1 -7 -9 -4 -18 7 -21 14 -7 14 6 0 13 -4 16 -10z m2442 -52 c-3 -8 -6 -5
-6 6 -1 11 2 17 5 13 3 -3 4 -12 1 -19z m-2592 2 c3 -5 -3 -10 -15 -10 -12 0
-18 5 -15 10 3 6 10 10 15 10 5 0 12 -4 15 -10z m1735 -20 c0 -5 -4 -10 -10
-10 -5 0 -10 5 -10 10 0 6 5 10 10 10 6 0 10 -4 10 -10z m-1668 -12 c48 -28
51 -37 12 -44 -30 -5 -40 -3 -51 11 -29 40 -6 58 39 33z m-165 -34 c-3 -3 -12
-4 -19 -1 -8 3 -5 6 6 6 11 1 17 -2 13 -5z m143 -34 c0 -5 -4 -10 -10 -10 -5
0 -10 5 -10 10 0 6 5 10 10 10 6 0 10 -4 10 -10z m2292 -15 c0 -5 -5 -11 -11
-13 -6 -2 -11 4 -11 13 0 9 5 15 11 13 6 -2 11 -8 11 -13z m831 -5 c5 -19 -9
-30 -29 -23 -15 6 -5 43 11 43 7 0 15 -9 18 -20z m-53 -16 c0 -11 -5 -14 -16
-10 -9 3 -18 6 -20 6 -3 0 -2 5 1 10 10 16 35 12 35 -6z m-2146 -24 c-15 -13
-73 -20 -79 -10 -3 6 0 10 8 10 8 0 20 7 27 15 9 11 17 12 32 4 11 -6 16 -14
12 -19z m1863 -8 c26 -33 20 -41 -49 -71 -29 -13 -61 -27 -70 -32 -10 -5 -19
-5 -23 0 -3 5 4 12 15 16 16 5 20 15 20 47 0 79 58 100 107 40z m-1406 -3 c6
-12 9 -29 6 -40 -3 -12 4 -24 20 -35 18 -11 22 -18 13 -24 -20 -12 -44 -1 -62
31 -9 16 -24 29 -33 29 -20 0 -19 19 3 41 23 24 39 23 53 -2z m-121 -60 c0
-14 -5 -19 -17 -17 -24 4 -26 38 -2 38 13 0 19 -7 19 -21z m1040 1 c-8 -5 -17
-7 -19 -4 -3 3 1 9 9 14 8 5 17 7 19 4 3 -3 -1 -9 -9 -14z m884 4 c11 -28 7
-34 -24 -34 -22 0 -30 5 -30 18 0 10 3 22 7 25 12 13 41 7 47 -9z m-822 -51
c6 -16 12 -49 14 -75 3 -38 -1 -52 -21 -77 -14 -16 -37 -53 -51 -83 -14 -29
-32 -66 -40 -81 -12 -21 -13 -31 -4 -42 17 -20 -21 -82 -42 -69 -5 3 -6 9 -3
14 3 5 -1 26 -10 47 -15 35 -15 39 1 50 10 7 21 13 26 13 4 0 8 4 8 10 0 5 -3
9 -7 9 -57 -9 -59 34 -3 58 33 15 40 23 40 45 0 15 6 31 13 35 29 18 67 75 58
87 -5 6 -11 20 -13 31 -3 12 -8 1 -12 -27 -11 -62 -33 -64 -34 -2 0 30 4 47
14 51 8 3 14 11 14 19 0 26 40 15 52 -13z m673 -35 c9 -24 22 -53 27 -64 6
-12 8 -30 6 -40 -3 -16 -13 -19 -72 -19 -67 0 -91 7 -60 19 8 3 14 14 13 23
-11 114 48 170 86 81z m-433 -30 c-13 -13 -24 5 -16 27 7 16 8 16 17 0 6 -11
6 -20 -1 -27z m-694 -45 c2 -11 -5 -28 -14 -38 -14 -13 -15 -18 -4 -25 18 -11
33 -126 20 -151 -20 -37 -58 -11 -45 31 3 11 -1 20 -10 24 -20 7 -20 62 1 74
13 7 14 13 5 30 -15 28 -14 34 7 60 20 26 36 24 40 -5z m162 17 c0 -5 -4 -10
-10 -10 -5 0 -10 5 -10 10 0 6 5 10 10 10 6 0 10 -4 10 -10z m490 -9 c0 -11
-4 -23 -10 -26 -6 -4 -10 5 -10 19 0 14 5 26 10 26 6 0 10 -9 10 -19z m247
-46 l22 -35 -29 -20 c-37 -26 -48 -25 -43 4 3 13 0 33 -7 45 -26 50 25 56 57
6z m-239 -53 c5 -47 -58 -142 -95 -142 -14 0 -8 26 12 50 12 14 25 71 26 113
0 14 7 17 26 15 22 -2 27 -9 31 -36z m439 22 c-3 -3 -12 -4 -19 -1 -8 3 -5 6
6 6 11 1 17 -2 13 -5z m139 -62 c-12 -11 -17 7 -9 34 l8 29 3 -28 c2 -16 1
-31 -2 -35z m-1016 33 c13 -16 10 -47 -5 -52 -22 -7 -48 23 -41 45 8 25 28 28
46 7z m325 -54 c7 -12 -12 -24 -25 -16 -11 7 -4 25 10 25 5 0 11 -4 15 -9z
m161 -78 c-11 -11 -19 6 -11 24 8 17 8 17 12 0 3 -10 2 -21 -1 -24z m-236 -28
c0 -26 -14 -33 -25 -15 -9 14 1 40 15 40 5 0 10 -11 10 -25z m170 10 c6 -8 9
-19 5 -25 -8 -12 -35 -13 -35 -1 0 5 -3 16 -6 25 -8 20 19 21 36 1z m-570 -25
c0 -5 -4 -10 -10 -10 -5 0 -10 5 -10 10 0 6 5 10 10 10 6 0 10 -4 10 -10z
m408 -92 c7 -7 12 -19 12 -28 0 -20 -43 -45 -59 -36 -12 8 -15 59 -4 69 10 11
38 8 51 -5z"/>
<path d="M5547 3324 c-8 -8 1 -24 14 -24 5 0 9 7 9 15 0 15 -12 20 -23 9z"/>
<path d="M7126 3111 c-4 -7 -5 -15 -2 -18 9 -9 19 4 14 18 -4 11 -6 11 -12 0z"/>
<path d="M7086 2881 c-4 -5 -2 -12 3 -15 5 -4 12 -2 15 3 4 5 2 12 -3 15 -5 4
-12 2 -15 -3z"/>
<path d="M7192 2761 c-8 -4 -31 -7 -53 -5 -44 3 -45 2 -54 -49 -6 -30 -4 -37
9 -37 9 0 16 7 16 15 0 8 6 15 14 15 7 0 19 7 26 15 8 10 17 12 29 5 25 -13
43 2 34 28 -6 14 -12 19 -21 13z"/>
<path d="M6938 2723 c7 -3 16 -2 19 1 4 3 -2 6 -13 5 -11 0 -14 -3 -6 -6z"/>
<path d="M6886 2703 c-11 -11 -6 -23 9 -23 8 0 15 4 15 9 0 13 -16 22 -24 14z"/>
<path d="M6967 2683 c-4 -3 -7 -23 -7 -44 0 -21 -5 -50 -10 -65 -7 -17 -7 -31
-1 -37 12 -12 117 95 113 115 -5 26 -77 50 -95 31z"/>
<path d="M4750 2839 c0 -5 5 -7 10 -4 6 3 10 8 10 11 0 2 -4 4 -10 4 -5 0 -10
-5 -10 -11z"/>
<path d="M8830 2360 c0 -5 5 -10 10 -10 6 0 10 5 10 10 0 6 -4 10 -10 10 -5 0
-10 -4 -10 -10z"/>
<path d="M8516 2341 c-4 -7 -5 -15 -2 -18 9 -9 19 4 14 18 -4 11 -6 11 -12 0z"/>
<path d="M8645 2320 c-3 -5 -2 -10 4 -10 5 0 13 5 16 10 3 6 2 10 -4 10 -5 0
-13 -4 -16 -10z"/>
<path d="M9130 2257 c0 -21 12 -28 27 -16 19 16 16 29 -7 29 -11 0 -20 -6 -20
-13z"/>
<path d="M8680 2204 c0 -8 5 -12 10 -9 6 4 8 11 5 16 -9 14 -15 11 -15 -7z"/>
<path d="M7495 2140 c-3 -5 -1 -10 4 -10 6 0 11 5 11 10 0 6 -2 10 -4 10 -3 0
-8 -4 -11 -10z"/>
<path d="M7540 2109 c0 -5 5 -7 10 -4 6 3 10 8 10 11 0 2 -4 4 -10 4 -5 0 -10
-5 -10 -11z"/>
<path d="M12150 5780 c0 -5 9 -10 21 -10 11 0 17 5 14 10 -3 6 -13 10 -21 10
-8 0 -14 -4 -14 -10z"/>
<path d="M12619 5634 c19 -8 37 -12 40 -9 9 10 -22 25 -49 24 -23 0 -22 -1 9
-15z"/>
<path d="M12670 5611 c0 -6 4 -11 9 -11 5 0 23 -13 39 -28 35 -32 154 -96 222
-118 54 -18 86 -33 120 -55 47 -30 60 -31 60 -4 0 20 -7 26 -42 35 -24 5 -56
15 -73 21 -16 6 -50 18 -75 27 -25 8 -65 34 -90 57 -59 55 -170 105 -170 76z"/>
<path d="M4353 5493 c-18 -7 -16 -23 2 -23 8 0 15 7 15 15 0 8 -1 15 -2 14 -2
0 -9 -3 -15 -6z"/>
<path d="M5540 5449 c-10 -18 -9 -20 7 -17 10 2 19 11 21 21 5 24 -15 21 -28
-4z"/>
<path d="M5470 5416 c0 -14 5 -28 10 -31 10 -6 3 -56 -10 -65 -4 -3 -13 -16
-20 -30 -7 -14 -9 -22 -5 -18 4 4 16 -3 25 -15 l18 -22 12 30 c7 17 16 37 20
45 4 8 2 26 -5 40 -7 14 -16 40 -20 58 -8 38 -25 43 -25 8z"/>
<path d="M4333 5341 c-7 -10 -9 -22 -5 -26 12 -12 74 -35 95 -35 17 0 13 7
-23 40 -24 22 -46 40 -49 40 -4 0 -12 -9 -18 -19z"/>
<path d="M6540 5270 c0 -5 5 -10 10 -10 6 0 10 5 10 10 0 6 -4 10 -10 10 -5 0
-10 -4 -10 -10z"/>
<path d="M6723 5254 c-7 -3 -9 -12 -6 -21 4 -9 -1 -21 -12 -29 -23 -17 -12
-18 32 -2 25 9 33 17 31 33 -3 20 -22 28 -45 19z"/>
<path d="M4422 5238 c3 -7 18 -14 34 -16 l29 -3 -29 16 c-34 18 -39 19 -34 3z"/>
<path d="M6660 5220 c0 -5 7 -10 15 -10 8 0 15 5 15 10 0 6 -7 10 -15 10 -8 0
-15 -4 -15 -10z"/>
<path d="M6869 5214 c-6 -8 -17 -14 -23 -14 -6 0 -22 -9 -35 -19 l-23 -18 28
-19 c41 -27 86 -25 99 4 5 12 12 22 15 22 4 0 15 7 26 15 16 13 16 14 2 9 -10
-3 -18 -2 -18 4 0 6 -13 15 -29 20 -23 8 -32 7 -42 -4z"/>
<path d="M3856 5185 c4 -8 10 -12 15 -9 14 8 10 24 -6 24 -9 0 -12 -6 -9 -15z"/>
<path d="M6420 5130 c0 -5 7 -10 16 -10 8 0 12 5 9 10 -3 6 -10 10 -16 10 -5
0 -9 -4 -9 -10z"/>
<path d="M7173 5083 c-20 -8 -15 -23 7 -23 11 0 20 7 20 15 0 15 -6 17 -27 8z"/>
<path d="M6210 4870 c0 -5 5 -10 10 -10 6 0 10 5 10 10 0 6 -4 10 -10 10 -5 0
-10 -4 -10 -10z"/>
<path d="M6595 4670 c-3 -5 -2 -10 4 -10 5 0 13 5 16 10 3 6 2 10 -4 10 -5 0
-13 -4 -16 -10z"/>
<path d="M6861 4481 c-21 -13 5 -24 29 -11 11 6 20 13 20 15 0 8 -34 5 -49 -4z"/>
<path d="M6647 4419 c8 -8 16 -8 30 0 16 9 14 10 -11 11 -22 0 -27 -3 -19 -11z"/>
<path d="M7840 4320 c0 -5 10 -10 23 -10 18 0 19 2 7 10 -19 13 -30 13 -30 0z"/>
<path d="M6322 4264 c2 -11 11 -20 22 -22 13 -3 17 1 14 14 -2 11 -11 20 -22
22 -13 3 -17 -1 -14 -14z"/>
<path d="M5848 4143 c6 -2 12 -9 12 -15 0 -15 27 -38 45 -38 12 0 15 5 11 16
-3 9 -6 18 -6 20 0 2 -9 4 -20 4 -11 0 -20 5 -20 10 0 6 -8 10 -17 9 -11 0
-13 -3 -5 -6z"/>
<path d="M6090 4140 c0 -5 5 -10 10 -10 6 0 10 5 10 10 0 6 -4 10 -10 10 -5 0
-10 -4 -10 -10z"/>
<path d="M6130 4136 c0 -9 5 -16 10 -16 6 0 10 4 10 9 0 6 -4 13 -10 16 -5 3
-10 -1 -10 -9z"/>
<path d="M6226 4071 c-4 -5 -2 -12 3 -15 5 -4 12 -2 15 3 4 5 2 12 -3 15 -5 4
-12 2 -15 -3z"/>
<path d="M6187 3866 c36 -44 44 -44 30 -1 -8 27 -16 35 -35 35 l-24 0 29 -34z"/>
<path d="M7040 3880 c0 -11 7 -20 15 -20 8 0 15 9 15 20 0 11 -7 20 -15 20 -8
0 -15 -9 -15 -20z"/>
<path d="M6260 3875 c0 -8 5 -15 10 -15 6 0 10 7 10 15 0 8 -4 15 -10 15 -5 0
-10 -7 -10 -15z"/>
<path d="M6870 3879 c0 -5 5 -7 10 -4 6 3 10 8 10 11 0 2 -4 4 -10 4 -5 0 -10
-5 -10 -11z"/>
<path d="M7017 3874 c-4 -4 -7 -14 -7 -23 0 -11 3 -12 11 -4 6 6 10 16 7 23
-2 6 -7 8 -11 4z"/>
<path d="M6703 3738 c-22 -11 -29 -28 -17 -41 7 -7 64 33 64 45 0 11 -20 9
-47 -4z"/>
<path d="M2953 3703 c-28 -19 -31 -47 -5 -39 9 2 36 10 60 17 44 13 52 23 26
33 -26 10 -58 6 -81 -11z"/>
<path d="M3490 3676 c0 -9 5 -16 10 -16 6 0 10 4 10 9 0 6 -4 13 -10 16 -5 3
-10 -1 -10 -9z"/>
<path d="M7380 3669 c0 -5 5 -7 10 -4 6 3 10 8 10 11 0 2 -4 4 -10 4 -5 0 -10
-5 -10 -11z"/>
<path d="M6655 3661 c-3 -5 -1 -12 5 -16 5 -3 10 1 10 9 0 18 -6 21 -15 7z"/>
<path d="M7840 3608 c0 -7 5 -20 10 -28 8 -12 10 -9 10 13 0 15 -4 27 -10 27
-5 0 -10 -6 -10 -12z"/>
<path d="M7883 3595 c0 -25 11 -33 21 -16 7 11 -3 41 -14 41 -4 0 -7 -11 -7
-25z"/>
<path d="M6750 3550 c0 -5 4 -10 9 -10 6 0 13 5 16 10 3 6 -1 10 -9 10 -9 0
-16 -4 -16 -10z"/>
<path d="M2602 3528 c6 -18 28 -21 28 -4 0 9 -7 16 -16 16 -9 0 -14 -5 -12
-12z"/>
<path d="M3387 3513 c-24 -23 9 -31 39 -8 18 14 18 14 -7 15 -14 0 -29 -3 -32
-7z"/>
<path d="M7000 3511 c0 -6 5 -13 10 -16 6 -3 10 1 10 9 0 9 -4 16 -10 16 -5 0
-10 -4 -10 -9z"/>
<path d="M8960 3460 c0 -18 36 -38 47 -26 10 10 -5 33 -26 39 -16 4 -21 0 -21
-13z"/>
<path d="M7411 3456 c-11 -13 -11 -17 3 -22 21 -8 25 -4 17 19 -6 17 -8 17
-20 3z"/>
<path d="M9505 3450 c-3 -5 -3 -15 1 -21 6 -11 23 6 24 24 0 10 -18 9 -25 -3z"/>
<path d="M9405 3420 c-4 -12 0 -26 9 -36 9 -8 16 -24 16 -35 0 -10 7 -19 15
-19 9 0 15 9 15 23 0 13 5 28 11 34 7 7 3 17 -17 32 -33 26 -41 26 -49 1z"/>
<path d="M8090 3390 c-12 -8 -12 -10 2 -15 19 -7 38 1 38 16 0 12 -21 11 -40
-1z"/>
<path d="M3391 3358 c1 -7 -1 -21 -6 -31 -4 -11 -3 -23 3 -29 8 -8 13 -7 18 5
3 9 14 17 24 17 29 0 33 17 8 34 -27 19 -50 21 -47 4z"/>
<path d="M2732 3308 c6 -18 28 -21 28 -4 0 9 -7 16 -16 16 -9 0 -14 -5 -12
-12z"/>
<path d="M9834 3299 c-8 -14 36 -16 47 -3 9 11 7 14 -16 12 -14 -1 -28 -5 -31
-9z"/>
<path d="M9800 3291 c0 -4 -11 -6 -25 -3 -16 3 -25 0 -25 -8 0 -7 -7 -10 -16
-6 -9 3 -21 3 -27 -1 -7 -4 -3 -9 11 -13 13 -3 23 -9 23 -15 0 -5 9 -13 19
-17 13 -5 17 -13 13 -27 -6 -22 20 -30 32 -11 5 8 11 7 20 0 21 -17 32 -5 27
29 -2 17 -8 28 -13 25 -5 -3 -6 1 -3 9 3 8 -2 17 -11 21 -9 3 -13 10 -10 16 3
5 1 10 -4 10 -6 0 -11 -4 -11 -9z"/>
<path d="M9914 3245 c-4 -8 -4 -24 -1 -35 3 -12 -1 -20 -12 -22 -13 -3 -12 -6
6 -16 19 -11 26 -9 44 9 17 17 26 20 39 11 14 -9 17 -7 16 11 -1 12 -6 21 -12
20 -5 -1 -23 -4 -39 -8 -29 -6 -29 -6 -11 9 11 9 25 16 30 17 14 1 -24 17 -42
18 -7 1 -15 -6 -18 -14z"/>
<path d="M10058 3253 c7 -3 16 -2 19 1 4 3 -2 6 -13 5 -11 0 -14 -3 -6 -6z"/>
<path d="M9730 3209 c0 -5 5 -7 10 -4 6 3 10 8 10 11 0 2 -4 4 -10 4 -5 0 -10
-5 -10 -11z"/>
<path d="M2085 3043 c3 -34 -3 -61 -18 -93 -16 -32 -22 -65 -22 -115 -1 -59
-6 -82 -38 -148 -43 -91 -45 -107 -14 -107 29 0 52 39 44 72 -5 16 2 33 22 58
15 19 31 45 35 57 4 12 13 27 21 33 21 17 19 27 -6 33 -16 4 -20 11 -16 26 3
12 -1 22 -10 25 -24 10 -12 51 15 50 12 0 22 5 22 11 0 7 6 18 14 24 21 17 16
49 -8 55 -16 4 -18 8 -8 18 9 9 8 16 -5 30 -25 28 -32 22 -28 -29z"/>
<path d="M3395 3062 c-54 -4 -64 -17 -34 -41 29 -25 55 -26 76 -5 26 26 5 50
-42 46z"/>
<path d="M2680 3006 c0 -24 35 -39 50 -21 15 18 13 21 -23 30 -21 6 -27 4 -27
-9z"/>
<path d="M2763 2983 c-3 -7 -11 -13 -19 -13 -8 0 -14 -5 -14 -11 0 -6 9 -8 21
-4 12 4 19 3 16 -2 -8 -12 10 -39 19 -30 14 14 10 74 -4 74 -8 0 -16 -6 -19
-14z"/>
<path d="M3583 2803 c9 -2 23 -2 30 0 6 3 -1 5 -18 5 -16 0 -22 -2 -12 -5z"/>
<path d="M10280 2668 c0 -10 5 -18 10 -18 6 0 10 -7 10 -15 0 -8 5 -15 11 -15
5 0 7 5 4 10 -3 6 -2 10 4 10 6 0 8 7 5 15 -9 22 13 18 63 -11 l45 -26 -17 25
c-26 41 -135 60 -135 25z"/>
<path d="M10322 2602 c-6 -14 -12 -37 -12 -50 0 -21 4 -24 27 -19 16 3 42 -1
60 -8 27 -12 31 -11 26 1 -7 19 4 18 37 -6 l28 -20 -7 27 c-5 18 -14 27 -24
25 -10 -2 -17 2 -17 8 0 5 -6 10 -14 10 -7 0 -19 7 -27 16 -7 8 -24 21 -38 29
-25 12 -27 11 -39 -13z m33 -32 c-5 -8 -11 -8 -17 -2 -6 6 -7 16 -3 22 5 8 11
8 17 2 6 -6 7 -16 3 -22z"/>
<path d="M10512 2599 c-46 -20 -48 -40 -4 -38 15 0 21 3 15 6 -21 8 -15 20 12
27 14 4 25 11 25 16 0 6 -1 10 -2 9 -2 0 -22 -9 -46 -20z"/>
<path d="M3630 2600 c0 -5 7 -10 15 -10 8 0 15 5 15 10 0 6 -7 10 -15 10 -8 0
-15 -4 -15 -10z"/>
<path d="M3410 2535 c-22 -26 4 -43 30 -20 11 10 20 22 20 27 0 14 -37 9 -50
-7z"/>
<path d="M11670 2530 c0 -5 5 -10 10 -10 6 0 10 5 10 10 0 6 -4 10 -10 10 -5
0 -10 -4 -10 -10z"/>
<path d="M1990 2505 c0 -8 5 -15 10 -15 6 0 10 -9 10 -21 0 -12 13 -38 30 -59
16 -20 34 -49 39 -64 11 -27 30 -35 32 -13 1 6 1 26 0 42 -1 25 0 27 9 13 6
-10 17 -18 24 -18 15 0 27 -23 22 -42 -1 -7 -1 -10 1 -5 11 18 44 4 69 -28 17
-23 40 -39 65 -45 23 -6 39 -17 39 -25 0 -8 7 -15 15 -15 28 0 15 27 -25 55
-31 21 -39 33 -35 49 3 12 2 15 -1 9 -8 -18 -24 -16 -24 2 0 8 -9 15 -20 15
-11 0 -20 6 -20 13 -1 6 -16 29 -34 51 -29 33 -36 37 -54 27 -11 -6 -25 -11
-30 -11 -9 0 -62 77 -62 91 0 5 -13 9 -30 9 -20 0 -30 -5 -30 -15z m60 -35 c0
-5 -2 -10 -4 -10 -3 0 -8 5 -11 10 -3 6 -1 10 4 10 6 0 11 -4 11 -10z"/>
<path d="M4070 2510 c0 -5 5 -10 10 -10 6 0 10 5 10 10 0 6 -4 10 -10 10 -5 0
-10 -4 -10 -10z"/>
<path d="M2190 2430 c0 -5 5 -10 10 -10 6 0 10 5 10 10 0 6 -4 10 -10 10 -5 0
-10 -4 -10 -10z"/>
<path d="M3858 2410 l-17 -30 31 0 c17 0 37 -8 44 -17 13 -17 15 -17 29 1 18
24 15 27 -25 28 -19 1 -26 4 -19 9 7 4 17 5 21 3 12 -8 9 11 -4 24 -20 20 -42
13 -60 -18z"/>
<path d="M4060 2431 c0 -13 48 -34 64 -28 31 12 17 33 -24 34 -22 1 -40 -2
-40 -6z"/>
<path d="M4585 2420 c3 -5 11 -10 16 -10 6 0 7 5 4 10 -3 6 -11 10 -16 10 -6
0 -7 -4 -4 -10z"/>
<path d="M1845 2353 c8 -32 13 -39 21 -30 10 9 -5 57 -17 57 -7 0 -9 -10 -4
-27z"/>
<path d="M10378 2364 c-16 -8 -28 -17 -28 -19 0 -11 27 -3 50 15 29 23 17 26
-22 4z"/>
<path d="M3155 2347 c-16 -13 -16 -14 -1 -20 10 -4 19 -1 23 9 8 21 -1 26 -22
11z"/>
<path d="M4051 2304 c0 -11 3 -14 6 -6 3 7 2 16 -1 19 -3 4 -6 -2 -5 -13z"/>
<path d="M4180 2313 c-18 -7 -30 -24 -24 -34 6 -10 93 -23 101 -15 8 8 -37 56
-51 55 -6 0 -18 -3 -26 -6z"/>
<path d="M4397 2303 c-4 -3 -7 -15 -7 -27 0 -20 0 -20 15 0 8 10 15 22 15 27
0 9 -14 9 -23 0z"/>
<path d="M4630 2297 c0 -10 -7 -20 -15 -23 -21 -9 -19 -24 4 -24 21 0 33 31
20 51 -7 11 -9 10 -9 -4z"/>
<path d="M4747 2290 c-3 -13 0 -20 9 -20 8 0 14 9 14 20 0 11 -4 20 -9 20 -5
0 -11 -9 -14 -20z"/>
<path d="M3560 2290 c0 -5 5 -10 10 -10 6 0 10 5 10 10 0 6 -4 10 -10 10 -5 0
-10 -4 -10 -10z"/>
<path d="M4785 2270 c-3 -5 -1 -10 4 -10 6 0 11 5 11 10 0 6 -2 10 -4 10 -3 0
-8 -4 -11 -10z"/>
<path d="M2690 2251 c0 -15 30 -41 46 -41 8 0 17 0 22 0 17 0 5 23 -13 26 -11
2 -21 8 -23 13 -4 13 -32 15 -32 2z"/>
<path d="M3796 2235 c4 -9 11 -14 16 -13 15 5 11 23 -6 26 -11 2 -14 -2 -10
-13z"/>
<path d="M2103 2213 c-21 -44 -17 -53 25 -53 21 0 41 3 45 6 11 11 -16 54 -34
54 -9 0 -19 4 -21 10 -1 5 -9 -3 -15 -17z"/>
<path d="M4425 2230 c-3 -5 -1 -10 4 -10 6 0 11 5 11 10 0 6 -2 10 -4 10 -3 0
-8 -4 -11 -10z"/>
<path d="M3170 2186 c0 -18 16 -29 30 -21 13 8 1 35 -16 35 -8 0 -14 -6 -14
-14z"/>
<path d="M4812 2178 c-6 -13 -11 -18 -11 -11 -1 7 -10 9 -28 4 -24 -7 -28 -13
-27 -44 1 -28 -3 -37 -19 -41 -12 -3 -27 0 -34 6 -10 8 -13 7 -13 -3 0 -19 28
-35 75 -43 33 -6 44 -3 62 14 12 11 32 20 45 20 20 0 21 2 8 15 -8 8 -30 15
-48 17 -38 3 -45 33 -9 44 33 10 51 44 24 44 -8 0 -19 -10 -25 -22z"/>
<path d="M3810 2181 c0 -6 5 -13 10 -16 6 -3 10 1 10 9 0 9 -4 16 -10 16 -5 0
-10 -4 -10 -9z"/>
<path d="M3270 2150 c0 -12 40 -33 48 -25 4 4 -2 13 -12 21 -23 16 -36 18 -36
4z"/>
<path d="M3475 2150 c3 -5 8 -10 11 -10 2 0 4 5 4 10 0 6 -5 10 -11 10 -5 0
-7 -4 -4 -10z"/>
<path d="M4548 2153 c7 -3 16 -2 19 1 4 3 -2 6 -13 5 -11 0 -14 -3 -6 -6z"/>
<path d="M10290 2112 c0 -5 7 -15 15 -22 8 -7 15 -19 15 -26 0 -8 7 -14 17
-14 14 0 14 3 -3 22 -36 42 -44 49 -44 40z"/>
<path d="M10051 2083 c-11 -12 -12 -20 -3 -34 7 -10 12 -26 12 -34 0 -9 4 -14
9 -11 5 3 9 -9 9 -27 0 -45 20 -93 33 -80 7 7 5 25 -6 55 -8 25 -18 67 -21 92
-8 53 -13 60 -33 39z"/>
<path d="M4583 2068 c-29 -14 -30 -28 -2 -28 11 0 29 -5 40 -10 14 -8 19 -7
19 1 0 6 9 9 20 6 30 -8 24 16 -7 31 -32 14 -41 14 -70 0z"/>
<path d="M4878 2059 c-24 -13 -23 -26 3 -40 26 -13 40 -1 33 29 -7 25 -11 26
-36 11z"/>
<path d="M3885 2050 c-3 -5 -26 -10 -51 -10 -64 0 -60 -28 8 -58 23 -9 26 -9
21 4 -4 10 4 24 22 38 18 14 24 25 17 30 -6 3 -13 2 -17 -4z"/>
<path d="M10440 2040 c14 -11 30 -24 36 -29 7 -5 15 -6 20 -1 5 5 28 10 51 13
24 2 46 7 50 11 4 4 -15 4 -43 1 -38 -5 -59 -3 -82 9 -43 22 -62 20 -32 -4z"/>
<path d="M4357 2023 c-4 -3 -7 -17 -7 -30 0 -19 5 -23 28 -23 15 0 33 -5 40
-12 6 -6 15 -9 19 -5 9 10 -33 48 -43 39 -5 -4 -3 0 4 9 6 9 9 19 5 22 -8 9
-38 9 -46 0z"/>
<path d="M4100 2001 c-12 -9 -12 -12 3 -29 9 -10 17 -26 17 -34 0 -9 11 -18
26 -21 21 -4 25 -1 21 14 -3 11 1 26 9 33 20 21 17 31 -8 32 -13 0 -30 4 -38
7 -8 4 -22 3 -30 -2z"/>
<path d="M10650 1980 c0 -5 4 -10 9 -10 6 0 13 5 16 10 3 6 -1 10 -9 10 -9 0
-16 -4 -16 -10z"/>
<path d="M10690 1986 c0 -10 28 -13 41 -5 10 6 7 9 -13 9 -16 0 -28 -2 -28 -4z"/>
<path d="M9150 1960 c-8 -5 -11 -12 -7 -16 4 -4 13 -2 19 4 15 15 7 24 -12 12z"/>
<path d="M9370 1953 c0 -12 5 -25 11 -28 16 -11 17 -2 2 25 -12 24 -13 24 -13
3z"/>
<path d="M2183 1944 c-7 -19 60 -88 95 -99 20 -6 22 -4 13 12 -5 10 -12 26
-15 35 -3 10 -12 15 -24 11 -14 -3 -22 3 -32 26 -14 34 -27 40 -37 15z"/>
<path d="M3865 1926 c-15 -20 -22 -22 -36 -13 -20 12 -35 5 -24 -12 9 -16 41
-13 59 4 8 8 19 15 25 15 6 0 11 7 11 15 0 22 -15 18 -35 -9z"/>
<path d="M4670 1928 c0 -27 16 -55 25 -46 9 9 -5 68 -16 68 -5 0 -9 -10 -9
-22z"/>
<path d="M9415 1941 c-3 -5 -1 -12 5 -16 5 -3 10 1 10 9 0 18 -6 21 -15 7z"/>
<path d="M4850 1910 c0 -6 7 -13 16 -17 13 -5 13 -7 2 -14 -9 -6 -4 -9 15 -9
22 0 27 4 27 25 0 21 -5 25 -30 25 -16 0 -30 -5 -30 -10z"/>
<path d="M10361 1894 c0 -17 -7 -37 -15 -43 -16 -14 -50 -100 -42 -108 21 -21
71 99 63 153 l-4 29 -2 -31z"/>
<path d="M5646 1871 c-4 -7 -5 -15 -2 -18 9 -9 19 4 14 18 -4 11 -6 11 -12 0z"/>
<path d="M4134 1859 c-10 -17 13 -36 27 -22 12 12 4 33 -11 33 -5 0 -12 -5
-16 -11z"/>
<path d="M4759 1852 c-7 -11 -19 -18 -26 -15 -16 6 -43 -14 -43 -33 0 -18 25
-18 43 0 13 13 17 13 33 1 21 -16 50 -19 58 -7 3 5 -8 23 -24 42 -27 32 -28
32 -41 12z"/>
<path d="M9126 1835 c-7 -29 -1 -45 18 -45 8 0 11 12 8 35 -5 41 -17 46 -26
10z"/>
<path d="M10012 1835 c0 -16 4 -41 8 -55 l8 -25 0 25 c0 14 -4 39 -8 55 l-8
30 0 -30z"/>
<path d="M3705 1820 c-4 -6 5 -10 20 -10 15 0 24 4 20 10 -3 6 -12 10 -20 10
-8 0 -17 -4 -20 -10z"/>
<path d="M3337 1794 c-14 -15 -6 -34 14 -34 14 0 19 5 17 17 -3 18 -20 27 -31
17z"/>
<path d="M4380 1790 c0 -5 5 -10 10 -10 6 0 10 5 10 10 0 6 -4 10 -10 10 -5 0
-10 -4 -10 -10z"/>
<path d="M4060 1786 c0 -3 13 -19 29 -36 19 -22 36 -31 51 -28 33 4 38 28 6
28 -15 0 -30 8 -36 20 -9 17 -50 30 -50 16z"/>
<path d="M5577 1784 c-14 -14 -7 -25 13 -22 12 2 21 8 21 13 0 12 -24 18 -34
9z"/>
<path d="M3797 1766 c-6 -16 2 -28 14 -20 12 7 11 34 0 34 -5 0 -11 -6 -14
-14z"/>
<path d="M5640 1770 c0 -5 5 -10 11 -10 5 0 7 5 4 10 -3 6 -8 10 -11 10 -2 0
-4 -4 -4 -10z"/>
<path d="M9182 1766 c1 -10 8 -17 13 -17 15 1 12 24 -3 29 -9 3 -13 -2 -10
-12z"/>
<path d="M4770 1715 c0 -9 -8 -14 -21 -12 -25 2 -33 -12 -19 -33 9 -13 12 -13
23 0 6 9 19 15 27 15 8 -1 20 1 25 4 6 3 19 6 29 6 11 0 21 6 24 14 3 10 -2
12 -21 7 -14 -3 -29 -2 -32 4 -10 15 -35 12 -35 -5z"/>
<path d="M3761 1686 l-24 -13 24 -17 c41 -28 60 -16 43 28 -7 19 -12 19 -43 2z"/>
<path d="M4635 1690 c-3 -10 -19 -15 -48 -14 -23 0 -53 -2 -66 -6 -22 -5 -23
-7 -7 -22 13 -14 22 -15 49 -6 17 6 37 14 42 19 6 4 17 4 25 -1 20 -13 60 -12
60 0 0 6 -8 14 -17 17 -10 4 -21 11 -25 17 -4 7 -9 5 -13 -4z"/>
<path d="M5690 1671 c0 -25 5 -31 31 -36 43 -10 47 1 14 35 -36 38 -45 38 -45
1z"/>
<path d="M2480 1686 c0 -9 30 -14 35 -6 4 6 -3 10 -14 10 -12 0 -21 -2 -21 -4z"/>
<path d="M3320 1671 c0 -10 7 -22 16 -25 22 -8 27 -2 19 23 -8 26 -35 28 -35
2z"/>
<path d="M3370 1650 c0 -5 4 -10 9 -10 6 0 13 5 16 10 3 6 -1 10 -9 10 -9 0
-16 -4 -16 -10z"/>
<path d="M4230 1641 c0 -4 5 -12 11 -18 7 -7 6 -12 -5 -16 -10 -4 -16 -1 -16
8 0 20 -20 18 -50 -4 l-25 -19 28 -7 c21 -6 26 -12 21 -24 -12 -31 -9 -46 10
-46 10 0 22 7 26 15 4 8 14 29 23 46 9 17 14 34 10 38 -3 3 -1 6 6 6 22 0 5
25 -17 26 -12 1 -22 -2 -22 -5z"/>
<path d="M4037 1623 c-9 -8 -9 -43 0 -43 4 0 17 10 30 21 19 18 25 20 38 9 17
-14 31 -8 20 9 -7 12 -78 15 -88 4z"/>
<path d="M6267 1614 c-8 -8 3 -34 14 -34 5 0 9 9 9 20 0 19 -11 26 -23 14z"/>
<path d="M5755 1600 c-3 -5 1 -10 9 -10 9 0 16 5 16 10 0 6 -4 10 -9 10 -6 0
-13 -4 -16 -10z"/>
<path d="M6045 1580 c-3 -5 -1 -10 4 -10 6 0 11 5 11 10 0 6 -2 10 -4 10 -3 0
-8 -4 -11 -10z"/>
<path d="M4717 1573 c-13 -12 -7 -23 13 -23 11 0 20 7 20 15 0 15 -21 21 -33
8z"/>
<path d="M3207 1564 c-11 -12 3 -24 29 -24 16 0 24 5 22 13 -5 13 -40 22 -51
11z"/>
<path d="M8921 1544 c0 -11 3 -14 6 -6 3 7 2 16 -1 19 -3 4 -6 -2 -5 -13z"/>
<path d="M3780 1530 c0 -5 -8 -10 -17 -11 -13 0 -11 -3 6 -10 29 -11 45 1 25
19 -8 7 -14 8 -14 2z"/>
<path d="M6035 1530 c-3 -5 -1 -10 4 -10 6 0 11 5 11 10 0 6 -2 10 -4 10 -3 0
-8 -4 -11 -10z"/>
<path d="M3884 1513 c-17 -18 -15 -32 9 -47 13 -8 20 -6 31 9 9 11 16 25 16
31 0 19 -39 24 -56 7z"/>
<path d="M4800 1510 c0 -5 5 -10 10 -10 6 0 10 5 10 10 0 6 -4 10 -10 10 -5 0
-10 -4 -10 -10z"/>
<path d="M6235 1510 c3 -5 10 -10 16 -10 5 0 9 5 9 10 0 6 -7 10 -16 10 -8 0
-12 -4 -9 -10z"/>
<path d="M4151 1406 c-7 -8 -8 -17 -3 -20 6 -3 13 1 16 10 9 23 2 28 -13 10z"/>
<path d="M5858 1413 c7 -3 16 -2 19 1 4 3 -2 6 -13 5 -11 0 -14 -3 -6 -6z"/>
<path d="M5674 1375 c11 -8 25 -15 30 -15 6 0 2 7 -8 15 -11 8 -25 15 -30 15
-6 0 -2 -7 8 -15z"/>
<path d="M6325 1350 c-4 -6 8 -10 30 -10 22 0 34 4 30 10 -3 6 -17 10 -30 10
-13 0 -27 -4 -30 -10z"/>
<path d="M9050 1336 c0 -24 16 -43 27 -32 8 8 -6 56 -17 56 -6 0 -10 -11 -10
-24z"/>
<path d="M5753 1303 c-20 -8 -15 -23 7 -23 11 0 20 7 20 15 0 15 -6 17 -27 8z"/>
<path d="M8533 1264 c-7 -12 -8 -26 -3 -34 13 -21 22 -7 18 27 -3 27 -4 27
-15 7z"/>
<path d="M8975 1260 c-19 -8 -19 -9 3 -9 12 -1 25 -1 29 -2 4 0 9 4 11 10 4
13 -15 13 -43 1z"/>
<path d="M4420 1233 c-23 -9 -40 -37 -29 -47 5 -6 18 -1 34 14 35 33 33 47 -5
33z"/>
<path d="M6742 1203 c2 -10 10 -18 18 -18 22 0 18 29 -3 33 -14 3 -18 -1 -15
-15z"/>
<path d="M5760 1150 c0 -5 5 -10 11 -10 5 0 7 5 4 10 -3 6 -8 10 -11 10 -2 0
-4 -4 -4 -10z"/>
<path d="M6871 1120 c-16 -9 -6 -30 15 -30 15 0 20 25 6 34 -4 2 -14 1 -21 -4z"/>
<path d="M9335 1049 c-8 -12 14 -31 30 -26 6 2 10 10 10 18 0 17 -31 24 -40 8z"/>
<path d="M5365 1040 c-8 -13 15 -24 27 -12 6 6 4 11 -6 15 -8 3 -18 2 -21 -3z"/>
<path d="M10140 979 c0 -5 5 -7 10 -4 6 3 10 8 10 11 0 2 -4 4 -10 4 -5 0 -10
-5 -10 -11z"/>
<path d="M6605 910 c3 -5 8 -10 11 -10 2 0 4 5 4 10 0 6 -5 10 -11 10 -5 0 -7
-4 -4 -10z"/>
<path d="M9765 884 c-17 -13 -18 -16 -5 -24 35 -22 73 -3 50 25 -15 18 -20 18
-45 -1z"/>
<path d="M4176 782 c-9 -27 0 -43 19 -35 19 7 19 14 1 38 -13 18 -14 18 -20
-3z"/>
<path d="M4560 716 c0 -8 -10 -18 -22 -22 l-23 -7 25 -10 c31 -12 90 -11 103
2 6 6 -3 17 -24 30 -40 25 -59 27 -59 7z"/>
<path d="M7396 571 c-6 -10 10 -25 36 -34 25 -9 33 12 12 28 -22 17 -40 19
-48 6z"/>
<path d="M6790 430 c0 -5 5 -10 10 -10 6 0 10 5 10 10 0 6 -4 10 -10 10 -5 0
-10 -4 -10 -10z"/>
<path d="M5103 393 c-13 -2 -23 -9 -23 -14 0 -5 -12 -14 -26 -19 -31 -12 -22
-30 16 -30 21 0 33 8 49 35 11 19 17 34 13 34 -4 -1 -17 -4 -29 -6z"/>
<path d="M8127 324 c-4 -4 -4 -11 -1 -15 8 -14 31 -10 38 6 5 15 -24 22 -37 9z"/>
<path d="M9100 85 c-16 -19 -6 -45 18 -45 25 0 46 25 38 45 -7 19 -40 19 -56
0z"/>
</g>
</svg>
